<svg width="1596" height="1596" xmlns="http://www.w3.org/2000/svg"><rect x="4" y="4" width="1588" height="1588" fill="#ffffff"/><rect x="2" y="2" width="1592" height="1592" fill="transparent" stroke="#27272a" stroke-width="4"/><line x1="109" y1="4" x2="109" y2="1592" stroke="#27272a" stroke-width="2"/><line x1="215" y1="4" x2="215" y2="1592" stroke="#27272a" stroke-width="2"/><line x1="321" y1="4" x2="321" y2="1592" stroke="#27272a" stroke-width="2"/><line x1="427" y1="4" x2="427" y2="1592" stroke="#27272a" stroke-width="2"/><line x1="533" y1="4" x2="533" y2="1592" stroke="#27272a" stroke-width="2"/><line x1="639" y1="4" x2="639" y2="1592" stroke="#27272a" stroke-width="2"/><line x1="745" y1="4" x2="745" y2="1592" stroke="#27272a" stroke-width="2"/><line x1="851" y1="4" x2="851" y2="1592" stroke="#27272a" stroke-width="2"/><line x1="957" y1="4" x2="957" y2="1592" stroke="#27272a" stroke-width="2"/><line x1="1063" y1="4" x2="1063" y2="1592" stroke="#27272a" stroke-width="2"/><line x1="1169" y1="4" x2="1169" y2="1592" stroke="#27272a" stroke-width="2"/><line x1="1275" y1="4" x2="1275" y2="1592" stroke="#27272a" stroke-width="2"/><line x1="1381" y1="4" x2="1381" y2="1592" stroke="#27272a" stroke-width="2"/><line x1="1487" y1="4" x2="1487" y2="1592" stroke="#27272a" stroke-width="2"/><line x1="4" y1="109" x2="1592" y2="109" stroke="#27272a" stroke-width="2"/><line x1="4" y1="215" x2="1592" y2="215" stroke="#27272a" stroke-width="2"/><line x1="4" y1="321" x2="1592" y2="321" stroke="#27272a" stroke-width="2"/><line x1="4" y1="427" x2="1592" y2="427" stroke="#27272a" stroke-width="2"/><line x1="4" y1="533" x2="1592" y2="533" stroke="#27272a" stroke-width="2"/><line x1="4" y1="639" x2="1592" y2="639" stroke="#27272a" stroke-width="2"/><line x1="4" y1="745" x2="1592" y2="745" stroke="#27272a" stroke-width="2"/><line x1="4" y1="851" x2="1592" y2="851" stroke="#27272a" stroke-width="2"/><line x1="4" y1="957" x2="1592" y2="957" stroke="#27272a" stroke-width="2"/><line x1="4" y1="1063" x2="1592" y2="1063" stroke="#27272a" stroke-width="2"/><line x1="4" y1="1169" x2="1592" y2="1169" stroke="#27272a" stroke-width="2"/><line x1="4" y1="1275" x2="1592" y2="1275" stroke="#27272a" stroke-width="2"/><line x1="4" y1="1381" x2="1592" y2="1381" stroke="#27272a" stroke-width="2"/><line x1="4" y1="1487" x2="1592" y2="1487" stroke="#27272a" stroke-width="2"/><path d="M 215 268 A 53 53 0 1 1 215 268" fill="transparent" stroke="#27272a" stroke-width="2"/><path d="M 321 268 A 53 53 0 1 1 321 268" fill="transparent" stroke="#27272a" stroke-width="2"/><path d="M 639 1328 A 53 53 0 1 1 639 1328" fill="transparent" stroke="#27272a" stroke-width="2"/><path d="M 745 1328 A 53 53 0 1 1 745 1328" fill="transparent" stroke="#27272a" stroke-width="2"/><path d="M 957 904 A 53 53 0 1 1 957 904" fill="transparent" stroke="#27272a" stroke-width="2"/><path d="M 1063 904 A 53 53 0 1 1 1063 904" fill="transparent" stroke="#27272a" stroke-width="2"/><rect x="3" y="3" width="106" height="106" fill="#27272a"/><rect x="3" y="427" width="106" height="106" fill="#27272a"/><rect x="3" y="533" width="106" height="106" fill="#27272a"/><rect x="3" y="957" width="106" height="106" fill="#27272a"/><rect x="3" y="1063" width="106" height="106" fill="#27272a"/><rect x="3" y="1169" width="106" height="106" fill="#27272a"/><rect x="109" y="3" width="106" height="106" fill="#27272a"/><rect x="109" y="427" width="106" height="106" fill="#27272a"/><rect x="109" y="533" width="106" height="106" fill="#27272a"/><rect x="109" y="1169" width="106" height="106" fill="#27272a"/><rect x="215" y="3" width="106" height="106" fill="#27272a"/><rect x="215" y="427" width="106" height="106" fill="#27272a"/><rect x="321" y="3" width="106" height="106" fill="#27272a"/><rect x="321" y="745" width="106" height="106" fill="#27272a"/><rect x="321" y="1275" width="106" height="106" fill="#27272a"/><rect x="321" y="1381" width="106" height="106" fill="#27272a"/><rect x="321" y="1487" width="106" height="106" fill="#27272a"/><rect x="427" y="3" width="106" height="106" fill="#27272a"/><rect x="427" y="109" width="106" height="106" fill="#27272a"/><rect x="427" y="639" width="106" height="106" fill="#27272a"/><rect x="427" y="1063" width="106" height="106" fill="#27272a"/><rect x="533" y="321" width="106" height="106" fill="#27272a"/><rect x="533" y="1169" width="106" height="106" fill="#27272a"/><rect x="639" y="533" width="106" height="106" fill="#27272a"/><rect x="639" y="957" width="106" height="106" fill="#27272a"/><rect x="745" y="427" width="106" height="106" fill="#27272a"/><rect x="745" y="533" width="106" height="106" fill="#27272a"/><rect x="745" y="957" width="106" height="106" fill="#27272a"/><rect x="745" y="1487" width="106" height="106" fill="#27272a"/><rect x="851" y="533" width="106" height="106" fill="#27272a"/><rect x="851" y="957" width="106" height="106" fill="#27272a"/><rect x="957" y="321" width="106" height="106" fill="#27272a"/><rect x="957" y="1169" width="106" height="106" fill="#27272a"/><rect x="1063" y="3" width="106" height="106" fill="#27272a"/><rect x="1063" y="109" width="106" height="106" fill="#27272a"/><rect x="1063" y="639" width="106" height="106" fill="#27272a"/><rect x="1063" y="1063" width="106" height="106" fill="#27272a"/><rect x="1169" y="3" width="106" height="106" fill="#27272a"/><rect x="1169" y="745" width="106" height="106" fill="#27272a"/><rect x="1169" y="1275" width="106" height="106" fill="#27272a"/><rect x="1169" y="1381" width="106" height="106" fill="#27272a"/><rect x="1169" y="1487" width="106" height="106" fill="#27272a"/><rect x="1275" y="3" width="106" height="106" fill="#27272a"/><rect x="1275" y="427" width="106" height="106" fill="#27272a"/><rect x="1381" y="3" width="106" height="106" fill="#27272a"/><rect x="1381" y="427" width="106" height="106" fill="#27272a"/><rect x="1381" y="533" width="106" height="106" fill="#27272a"/><rect x="1381" y="1169" width="106" height="106" fill="#27272a"/><rect x="1487" y="3" width="106" height="106" fill="#27272a"/><rect x="1487" y="427" width="106" height="106" fill="#27272a"/><rect x="1487" y="533" width="106" height="106" fill="#27272a"/><rect x="1487" y="957" width="106" height="106" fill="#27272a"/><rect x="1487" y="1063" width="106" height="106" fill="#27272a"/><rect x="1487" y="1169" width="106" height="106" fill="#27272a"/><g fill="#27272a"><path d="M548.8 12.55L548.8 33.64L546.24 33.64L546.24 15.23L546.12 15.23L540.97 18.64L540.97 16.05L546.24 12.55Z"/></g><g fill="#27272a"><path d="M647.38 33.64L647.38 31.79L654.34 24.16Q655.57 22.83 656.36 21.83Q657.16 20.84 657.54 19.96Q657.93 19.08 657.93 18.11Q657.93 17 657.4 16.18Q656.87 15.37 655.95 14.93Q655.03 14.48 653.89 14.48Q652.68 14.48 651.78 14.98Q650.87 15.48 650.39 16.38Q649.9 17.28 649.9 18.48L647.47 18.48Q647.47 16.63 648.32 15.23Q649.18 13.83 650.65 13.04Q652.13 12.26 653.97 12.26Q655.83 12.26 657.26 13.04Q658.69 13.83 659.5 15.15Q660.32 16.48 660.32 18.11Q660.32 19.27 659.9 20.38Q659.48 21.49 658.46 22.84Q657.43 24.2 655.62 26.14L650.88 31.21L650.88 31.37L660.69 31.37L660.69 33.64Z"/></g><g fill="#27272a"><path d="M760.51 33.93Q758.47 33.93 756.88 33.23Q755.29 32.53 754.36 31.28Q753.42 30.02 753.34 28.37L755.94 28.37Q756.02 29.39 756.64 30.12Q757.26 30.86 758.25 31.26Q759.25 31.66 760.47 31.66Q761.83 31.66 762.88 31.19Q763.93 30.71 764.53 29.87Q765.12 29.03 765.12 27.91Q765.12 26.75 764.55 25.86Q763.97 24.97 762.86 24.46Q761.75 23.96 760.14 23.96L758.45 23.96L758.45 21.69L760.14 21.69Q761.4 21.69 762.35 21.24Q763.3 20.79 763.84 19.96Q764.38 19.14 764.38 18.03Q764.38 16.96 763.91 16.16Q763.43 15.37 762.57 14.93Q761.71 14.48 760.55 14.48Q759.46 14.48 758.5 14.88Q757.53 15.28 756.93 16.02Q756.32 16.77 756.27 17.82L753.8 17.82Q753.86 16.16 754.79 14.91Q755.73 13.66 757.25 12.96Q758.77 12.26 760.59 12.26Q762.55 12.26 763.95 13.05Q765.35 13.84 766.1 15.12Q766.85 16.41 766.85 17.9Q766.85 19.68 765.92 20.94Q764.99 22.2 763.39 22.68L763.39 22.85Q765.39 23.18 766.51 24.54Q767.64 25.91 767.64 27.91Q767.64 29.63 766.7 31Q765.77 32.36 764.17 33.14Q762.56 33.93 760.51 33.93Z"/></g><g fill="#27272a"><path d="M858.89 29.31L858.89 27.21L868.16 12.55L869.68 12.55L869.68 15.8L868.65 15.8L861.65 26.88L861.65 27.05L874.13 27.05L874.13 29.31ZM868.82 33.64L868.82 28.68L868.82 27.7L868.82 12.55L871.25 12.55L871.25 33.64Z"/></g><g fill="#27272a"><path d="M971.97 33.93Q970.16 33.93 968.71 33.21Q967.26 32.49 966.38 31.23Q965.51 29.97 965.42 28.37L967.9 28.37Q968.04 29.8 969.2 30.73Q970.36 31.66 971.97 31.66Q973.27 31.66 974.29 31.05Q975.3 30.45 975.88 29.38Q976.46 28.31 976.46 26.97Q976.46 25.59 975.86 24.5Q975.26 23.41 974.21 22.78Q973.16 22.16 971.81 22.15Q970.84 22.14 969.82 22.44Q968.8 22.74 968.14 23.22L965.75 22.93L967.03 12.55L977.99 12.55L977.99 14.81L969.17 14.81L968.43 21.03L968.56 21.03Q969.2 20.52 970.18 20.18Q971.16 19.84 972.22 19.84Q974.16 19.84 975.68 20.76Q977.2 21.68 978.07 23.28Q978.94 24.88 978.94 26.92Q978.94 28.94 978.03 30.52Q977.13 32.1 975.56 33.02Q973.98 33.93 971.97 33.93Z"/></g><g fill="#27272a"><path d="M18.39 139.93Q17.09 139.91 15.79 139.43Q14.49 138.96 13.42 137.83Q12.35 136.7 11.7 134.77Q11.05 132.84 11.05 129.92Q11.05 127.12 11.58 124.95Q12.1 122.78 13.1 121.29Q14.1 119.8 15.52 119.03Q16.93 118.26 18.72 118.26Q20.49 118.26 21.87 118.97Q23.26 119.67 24.13 120.93Q25.01 122.18 25.27 123.82L22.75 123.82Q22.4 122.4 21.39 121.46Q20.38 120.53 18.72 120.53Q16.26 120.53 14.86 122.66Q13.45 124.79 13.44 128.64L13.61 128.64Q14.18 127.77 14.98 127.14Q15.78 126.52 16.75 126.18Q17.72 125.84 18.8 125.84Q20.61 125.84 22.11 126.74Q23.62 127.64 24.52 129.22Q25.43 130.8 25.43 132.84Q25.43 134.8 24.55 136.42Q23.68 138.04 22.1 139Q20.52 139.95 18.39 139.93ZM18.39 137.66Q19.68 137.66 20.72 137.01Q21.75 136.36 22.36 135.27Q22.96 134.18 22.96 132.84Q22.96 131.53 22.38 130.46Q21.79 129.38 20.78 128.74Q19.77 128.11 18.47 128.11Q17.49 128.11 16.65 128.49Q15.8 128.88 15.17 129.55Q14.53 130.22 14.17 131.08Q13.81 131.94 13.81 132.88Q13.81 134.14 14.41 135.23Q15 136.32 16.03 136.99Q17.07 137.66 18.39 137.66Z"/></g><g fill="#27272a"><path d="M118.04 139.64L127.48 120.98L127.48 120.81L116.6 120.81L116.6 118.55L130.11 118.55L130.11 120.94L120.72 139.64Z"/></g><g fill="#27272a"><path d="M230.14 139.93Q228.02 139.93 226.4 139.17Q224.77 138.41 223.87 137.08Q222.96 135.75 222.97 134.04Q222.96 132.7 223.5 131.56Q224.03 130.42 224.96 129.65Q225.9 128.89 227.05 128.68L227.05 128.56Q225.54 128.17 224.64 126.85Q223.74 125.54 223.75 123.86Q223.74 122.26 224.57 120.99Q225.39 119.72 226.84 118.99Q228.29 118.26 230.14 118.26Q231.97 118.26 233.41 118.99Q234.86 119.72 235.68 120.99Q236.51 122.26 236.52 123.86Q236.51 125.54 235.61 126.85Q234.71 128.17 233.23 128.56L233.23 128.68Q234.37 128.89 235.29 129.65Q236.2 130.42 236.75 131.56Q237.3 132.7 237.31 134.04Q237.3 135.75 236.38 137.08Q235.47 138.41 233.86 139.17Q232.25 139.93 230.14 139.93ZM230.14 137.66Q231.57 137.66 232.61 137.2Q233.65 136.73 234.22 135.89Q234.78 135.05 234.79 133.91Q234.78 132.72 234.18 131.8Q233.57 130.89 232.52 130.36Q231.48 129.84 230.14 129.84Q228.79 129.84 227.73 130.36Q226.68 130.89 226.08 131.8Q225.47 132.72 225.48 133.91Q225.47 135.05 226.04 135.89Q226.6 136.73 227.65 137.2Q228.7 137.66 230.14 137.66ZM230.14 127.65Q231.27 127.65 232.15 127.2Q233.03 126.75 233.54 125.93Q234.04 125.12 234.05 124.03Q234.04 122.96 233.55 122.16Q233.05 121.36 232.18 120.92Q231.3 120.48 230.14 120.48Q228.95 120.48 228.07 120.92Q227.18 121.36 226.7 122.16Q226.22 122.96 226.23 124.03Q226.22 125.12 226.71 125.93Q227.21 126.75 228.1 127.2Q228.99 127.65 230.14 127.65Z"/></g><g fill="#27272a"><path d="M336.1 118.26Q337.4 118.27 338.69 118.75Q339.99 119.24 341.06 120.36Q342.13 121.47 342.78 123.4Q343.43 125.32 343.43 128.23Q343.43 131.04 342.9 133.22Q342.37 135.4 341.38 136.89Q340.38 138.38 338.97 139.16Q337.55 139.93 335.77 139.93Q334 139.93 332.61 139.22Q331.23 138.52 330.35 137.26Q329.47 135.99 329.22 134.33L331.73 134.33Q332.07 135.78 333.09 136.72Q334.1 137.66 335.77 137.66Q338.21 137.66 339.62 135.53Q341.04 133.4 341.04 129.51L340.88 129.51Q340.3 130.37 339.51 131Q338.71 131.63 337.75 131.97Q336.78 132.31 335.69 132.31Q333.87 132.31 332.36 131.41Q330.86 130.5 329.95 128.92Q329.05 127.34 329.05 125.3Q329.05 123.37 329.92 121.76Q330.79 120.14 332.37 119.19Q333.96 118.23 336.1 118.26ZM336.1 120.53Q334.8 120.53 333.77 121.17Q332.73 121.81 332.13 122.9Q331.53 123.99 331.53 125.3Q331.53 126.62 332.11 127.7Q332.69 128.77 333.7 129.41Q334.72 130.04 336.02 130.04Q336.99 130.04 337.84 129.65Q338.68 129.27 339.32 128.59Q339.95 127.92 340.31 127.06Q340.67 126.2 340.67 125.26Q340.67 124.03 340.08 122.95Q339.49 121.86 338.45 121.19Q337.42 120.53 336.1 120.53Z"/></g><g fill="#27272a"><path d="M548.8 118.55L548.8 139.64L546.24 139.64L546.24 121.23L546.12 121.23L540.97 124.64L540.97 122.05L546.24 118.55ZM561.73 139.93Q559.41 139.93 557.77 138.66Q556.13 137.38 555.27 134.96Q554.4 132.53 554.4 129.09Q554.4 125.67 555.27 123.25Q556.14 120.82 557.78 119.54Q559.43 118.26 561.73 118.26Q564.04 118.26 565.68 119.54Q567.32 120.82 568.19 123.25Q569.07 125.67 569.07 129.09Q569.07 132.53 568.2 134.96Q567.33 137.38 565.7 138.66Q564.06 139.93 561.73 139.93ZM561.73 137.66Q564.04 137.66 565.32 135.44Q566.59 133.21 566.59 129.09Q566.59 126.35 566.01 124.43Q565.43 122.5 564.34 121.49Q563.26 120.48 561.73 120.48Q559.45 120.48 558.16 122.73Q556.87 124.98 556.87 129.09Q556.87 131.83 557.45 133.75Q558.03 135.66 559.11 136.66Q560.2 137.66 561.73 137.66Z"/></g><g fill="#27272a"><path d="M1184.8 118.55L1184.8 139.64L1182.24 139.64L1182.24 121.23L1182.12 121.23L1176.97 124.64L1176.97 122.05L1182.24 118.55ZM1198.27 118.55L1198.27 139.64L1195.71 139.64L1195.71 121.23L1195.59 121.23L1190.44 124.64L1190.44 122.05L1195.71 118.55Z"/></g><g fill="#27272a"><path d="M1290.8 118.55L1290.8 139.64L1288.24 139.64L1288.24 121.23L1288.12 121.23L1282.97 124.64L1282.97 122.05L1288.24 118.55ZM1296.85 139.64L1296.85 137.79L1303.82 130.16Q1305.04 128.83 1305.83 127.83Q1306.63 126.84 1307.01 125.96Q1307.4 125.08 1307.4 124.11Q1307.4 123 1306.87 122.18Q1306.34 121.37 1305.42 120.93Q1304.51 120.48 1303.36 120.48Q1302.15 120.48 1301.25 120.98Q1300.34 121.48 1299.86 122.38Q1299.37 123.28 1299.37 124.48L1296.94 124.48Q1296.94 122.63 1297.79 121.23Q1298.65 119.83 1300.12 119.04Q1301.6 118.26 1303.44 118.26Q1305.3 118.26 1306.73 119.04Q1308.16 119.83 1308.97 121.15Q1309.79 122.48 1309.79 124.11Q1309.79 125.27 1309.37 126.38Q1308.95 127.49 1307.93 128.84Q1306.9 130.2 1305.09 132.14L1300.35 137.21L1300.35 137.37L1310.16 137.37L1310.16 139.64Z"/></g><g fill="#27272a"><path d="M1396.8 118.55L1396.8 139.64L1394.24 139.64L1394.24 121.23L1394.12 121.23L1388.97 124.64L1388.97 122.05L1394.24 118.55ZM1409.98 139.93Q1407.94 139.93 1406.35 139.23Q1404.76 138.53 1403.83 137.28Q1402.89 136.02 1402.81 134.37L1405.41 134.37Q1405.49 135.39 1406.11 136.12Q1406.73 136.86 1407.72 137.26Q1408.72 137.66 1409.94 137.66Q1411.3 137.66 1412.35 137.19Q1413.4 136.71 1414 135.87Q1414.59 135.03 1414.59 133.91Q1414.59 132.75 1414.02 131.86Q1413.44 130.97 1412.33 130.46Q1411.22 129.96 1409.61 129.96L1407.92 129.96L1407.92 127.69L1409.61 127.69Q1410.87 127.69 1411.82 127.24Q1412.77 126.79 1413.31 125.96Q1413.85 125.14 1413.85 124.03Q1413.85 122.96 1413.38 122.16Q1412.9 121.37 1412.04 120.93Q1411.18 120.48 1410.02 120.48Q1408.93 120.48 1407.97 120.88Q1407 121.28 1406.4 122.02Q1405.79 122.77 1405.74 123.82L1403.27 123.82Q1403.33 122.16 1404.26 120.91Q1405.2 119.66 1406.72 118.96Q1408.24 118.26 1410.06 118.26Q1412.02 118.26 1413.42 119.05Q1414.82 119.84 1415.57 121.12Q1416.32 122.41 1416.32 123.9Q1416.32 125.68 1415.39 126.94Q1414.46 128.2 1412.86 128.68L1412.86 128.85Q1414.86 129.18 1415.98 130.54Q1417.11 131.91 1417.11 133.91Q1417.11 135.63 1416.17 137Q1415.24 138.36 1413.64 139.14Q1412.03 139.93 1409.98 139.93Z"/></g><g fill="#27272a"><path d="M1502.8 118.55L1502.8 139.64L1500.24 139.64L1500.24 121.23L1500.12 121.23L1494.97 124.64L1494.97 122.05L1500.24 118.55ZM1508.36 135.31L1508.36 133.21L1517.63 118.55L1519.15 118.55L1519.15 121.8L1518.12 121.8L1511.12 132.88L1511.12 133.05L1523.6 133.05L1523.6 135.31ZM1518.29 139.64L1518.29 134.68L1518.29 133.7L1518.29 118.55L1520.72 118.55L1520.72 139.64Z"/></g><g fill="#27272a"><path d="M18.8 224.55L18.8 245.64L16.24 245.64L16.24 227.23L16.12 227.23L10.97 230.64L10.97 228.05L16.24 224.55ZM31.44 245.93Q29.63 245.93 28.18 245.21Q26.73 244.49 25.85 243.23Q24.98 241.97 24.89 240.37L27.37 240.37Q27.51 241.8 28.67 242.73Q29.83 243.66 31.44 243.66Q32.74 243.66 33.76 243.05Q34.77 242.45 35.35 241.38Q35.93 240.31 35.93 238.97Q35.93 237.59 35.33 236.5Q34.73 235.41 33.68 234.78Q32.63 234.16 31.28 234.15Q30.31 234.14 29.29 234.44Q28.27 234.74 27.61 235.22L25.22 234.93L26.5 224.55L37.46 224.55L37.46 226.81L28.64 226.81L27.9 233.03L28.03 233.03Q28.67 232.52 29.65 232.18Q30.63 231.84 31.69 231.84Q33.63 231.84 35.15 232.76Q36.67 233.68 37.54 235.28Q38.41 236.88 38.41 238.92Q38.41 240.94 37.5 242.52Q36.6 244.1 35.03 245.02Q33.45 245.93 31.44 245.93Z"/></g><g fill="#27272a"><path d="M442.8 224.55L442.8 245.64L440.24 245.64L440.24 227.23L440.12 227.23L434.97 230.64L434.97 228.05L440.24 224.55ZM455.86 245.93Q454.56 245.91 453.26 245.43Q451.96 244.96 450.89 243.83Q449.82 242.7 449.17 240.77Q448.52 238.84 448.52 235.92Q448.52 233.12 449.05 230.95Q449.57 228.78 450.57 227.29Q451.57 225.8 452.99 225.03Q454.4 224.26 456.19 224.26Q457.96 224.26 459.34 224.97Q460.73 225.67 461.6 226.93Q462.48 228.18 462.74 229.82L460.22 229.82Q459.87 228.4 458.86 227.46Q457.85 226.53 456.19 226.53Q453.73 226.53 452.33 228.66Q450.92 230.79 450.91 234.64L451.08 234.64Q451.65 233.77 452.45 233.14Q453.25 232.52 454.22 232.18Q455.19 231.84 456.27 231.84Q458.08 231.84 459.58 232.74Q461.09 233.64 461.99 235.22Q462.9 236.8 462.9 238.84Q462.9 240.8 462.02 242.42Q461.15 244.04 459.57 245Q457.99 245.95 455.86 245.93ZM455.86 243.66Q457.15 243.66 458.19 243.01Q459.22 242.36 459.83 241.27Q460.43 240.18 460.43 238.84Q460.43 237.53 459.85 236.46Q459.26 235.38 458.25 234.74Q457.24 234.11 455.94 234.11Q454.96 234.11 454.12 234.49Q453.27 234.88 452.64 235.55Q452 236.22 451.64 237.08Q451.28 237.94 451.28 238.88Q451.28 240.14 451.88 241.23Q452.47 242.32 453.5 242.99Q454.54 243.66 455.86 243.66Z"/></g><g fill="#27272a"><path d="M1078.8 224.55L1078.8 245.64L1076.24 245.64L1076.24 227.23L1076.12 227.23L1070.97 230.64L1070.97 228.05L1076.24 224.55ZM1085.51 245.64L1094.95 226.98L1094.95 226.81L1084.07 226.81L1084.07 224.55L1097.58 224.55L1097.58 226.94L1088.19 245.64Z"/></g><g fill="#27272a"><path d="M18.8 330.55L18.8 351.64L16.24 351.64L16.24 333.23L16.12 333.23L10.97 336.64L10.97 334.05L16.24 330.55ZM31.61 351.93Q29.49 351.93 27.87 351.17Q26.24 350.41 25.34 349.08Q24.43 347.75 24.44 346.04Q24.43 344.7 24.97 343.56Q25.5 342.42 26.43 341.65Q27.37 340.89 28.52 340.68L28.52 340.56Q27.01 340.17 26.11 338.85Q25.21 337.54 25.22 335.86Q25.21 334.26 26.04 332.99Q26.86 331.72 28.31 330.99Q29.76 330.26 31.61 330.26Q33.44 330.26 34.88 330.99Q36.33 331.72 37.15 332.99Q37.98 334.26 37.99 335.86Q37.98 337.54 37.08 338.85Q36.18 340.17 34.7 340.56L34.7 340.68Q35.84 340.89 36.76 341.65Q37.67 342.42 38.22 343.56Q38.77 344.7 38.78 346.04Q38.77 347.75 37.86 349.08Q36.94 350.41 35.33 351.17Q33.72 351.93 31.61 351.93ZM31.61 349.66Q33.04 349.66 34.08 349.2Q35.12 348.73 35.69 347.89Q36.25 347.05 36.26 345.91Q36.25 344.72 35.65 343.8Q35.04 342.89 33.99 342.36Q32.95 341.84 31.61 341.84Q30.26 341.84 29.2 342.36Q28.15 342.89 27.55 343.8Q26.94 344.72 26.95 345.91Q26.94 347.05 27.51 347.89Q28.07 348.73 29.12 349.2Q30.17 349.66 31.61 349.66ZM31.61 339.65Q32.74 339.65 33.62 339.2Q34.5 338.75 35.01 337.93Q35.51 337.12 35.52 336.03Q35.51 334.96 35.02 334.16Q34.52 333.36 33.65 332.92Q32.77 332.48 31.61 332.48Q30.42 332.48 29.54 332.92Q28.65 333.36 28.17 334.16Q27.69 334.96 27.7 336.03Q27.69 337.12 28.18 337.93Q28.68 338.75 29.57 339.2Q30.46 339.65 31.61 339.65Z"/></g><g fill="#27272a"><path d="M654.8 330.55L654.8 351.64L652.24 351.64L652.24 333.23L652.12 333.23L646.97 336.64L646.97 334.05L652.24 330.55ZM667.57 330.26Q668.87 330.27 670.16 330.75Q671.46 331.24 672.53 332.36Q673.6 333.47 674.25 335.4Q674.9 337.32 674.9 340.23Q674.9 343.04 674.37 345.22Q673.84 347.4 672.85 348.89Q671.85 350.38 670.44 351.16Q669.02 351.93 667.24 351.93Q665.47 351.93 664.08 351.22Q662.7 350.52 661.82 349.26Q660.94 347.99 660.69 346.33L663.2 346.33Q663.54 347.78 664.56 348.72Q665.57 349.66 667.24 349.66Q669.68 349.66 671.1 347.53Q672.51 345.4 672.51 341.51L672.35 341.51Q671.77 342.37 670.98 343Q670.18 343.63 669.22 343.97Q668.25 344.31 667.16 344.31Q665.34 344.31 663.83 343.41Q662.33 342.5 661.42 340.92Q660.52 339.34 660.52 337.3Q660.52 335.37 661.39 333.76Q662.26 332.14 663.85 331.19Q665.43 330.23 667.57 330.26ZM667.57 332.53Q666.27 332.53 665.24 333.17Q664.2 333.81 663.6 334.9Q663 335.99 663 337.3Q663 338.62 663.58 339.7Q664.16 340.77 665.17 341.41Q666.19 342.04 667.49 342.04Q668.46 342.04 669.31 341.65Q670.15 341.27 670.79 340.59Q671.42 339.92 671.78 339.06Q672.14 338.2 672.14 337.26Q672.14 336.03 671.55 334.95Q670.96 333.86 669.92 333.19Q668.89 332.53 667.57 332.53Z"/></g><g fill="#27272a"><path d="M1071.38 351.64L1071.38 349.79L1078.34 342.16Q1079.57 340.83 1080.36 339.83Q1081.16 338.84 1081.54 337.96Q1081.93 337.08 1081.93 336.11Q1081.93 335 1081.4 334.18Q1080.87 333.37 1079.95 332.93Q1079.03 332.48 1077.89 332.48Q1076.68 332.48 1075.78 332.98Q1074.87 333.48 1074.39 334.38Q1073.9 335.28 1073.9 336.48L1071.47 336.48Q1071.47 334.63 1072.32 333.23Q1073.18 331.83 1074.65 331.04Q1076.13 330.26 1077.97 330.26Q1079.83 330.26 1081.26 331.04Q1082.69 331.83 1083.5 333.15Q1084.32 334.48 1084.32 336.11Q1084.32 337.27 1083.9 338.38Q1083.48 339.49 1082.46 340.84Q1081.43 342.2 1079.62 344.14L1074.88 349.21L1074.88 349.37L1084.69 349.37L1084.69 351.64ZM1095.81 351.93Q1093.48 351.93 1091.85 350.66Q1090.21 349.38 1089.34 346.96Q1088.48 344.53 1088.48 341.09Q1088.48 337.67 1089.35 335.25Q1090.22 332.82 1091.86 331.54Q1093.5 330.26 1095.81 330.26Q1098.12 330.26 1099.76 331.54Q1101.4 332.82 1102.27 335.25Q1103.14 337.67 1103.14 341.09Q1103.14 344.53 1102.28 346.96Q1101.41 349.38 1099.78 350.66Q1098.14 351.93 1095.81 351.93ZM1095.81 349.66Q1098.12 349.66 1099.39 347.44Q1100.67 345.21 1100.67 341.09Q1100.67 338.35 1100.09 336.43Q1099.51 334.5 1098.42 333.49Q1097.33 332.48 1095.81 332.48Q1093.52 332.48 1092.24 334.73Q1090.95 336.98 1090.95 341.09Q1090.95 343.83 1091.53 345.75Q1092.1 347.66 1093.19 348.66Q1094.28 349.66 1095.81 349.66Z"/></g><g fill="#27272a"><path d="M329.38 457.64L329.38 455.79L336.34 448.16Q337.57 446.83 338.36 445.83Q339.16 444.84 339.54 443.96Q339.93 443.08 339.93 442.11Q339.93 441 339.4 440.18Q338.87 439.37 337.95 438.93Q337.03 438.48 335.89 438.48Q334.68 438.48 333.78 438.98Q332.87 439.48 332.39 440.38Q331.9 441.28 331.9 442.48L329.47 442.48Q329.47 440.63 330.32 439.23Q331.18 437.83 332.65 437.04Q334.13 436.26 335.97 436.26Q337.83 436.26 339.26 437.04Q340.69 437.83 341.5 439.15Q342.32 440.48 342.32 442.11Q342.32 443.27 341.9 444.38Q341.48 445.49 340.46 446.84Q339.43 448.2 337.62 450.14L332.88 455.21L332.88 455.37L342.69 455.37L342.69 457.64ZM354.35 436.55L354.35 457.64L351.79 457.64L351.79 439.23L351.67 439.23L346.52 442.64L346.52 440.05L351.79 436.55Z"/></g><g fill="#27272a"><path d="M541.38 457.64L541.38 455.79L548.34 448.16Q549.57 446.83 550.36 445.83Q551.16 444.84 551.54 443.96Q551.93 443.08 551.93 442.11Q551.93 441 551.4 440.18Q550.87 439.37 549.95 438.93Q549.03 438.48 547.89 438.48Q546.68 438.48 545.78 438.98Q544.87 439.48 544.39 440.38Q543.9 441.28 543.9 442.48L541.47 442.48Q541.47 440.63 542.32 439.23Q543.18 437.83 544.65 437.04Q546.13 436.26 547.97 436.26Q549.83 436.26 551.26 437.04Q552.69 437.83 553.5 439.15Q554.32 440.48 554.32 442.11Q554.32 443.27 553.9 444.38Q553.48 445.49 552.46 446.84Q551.43 448.2 549.62 450.14L544.88 455.21L544.88 455.37L554.69 455.37L554.69 457.64ZM558.93 457.64L558.93 455.79L565.89 448.16Q567.12 446.83 567.91 445.83Q568.7 444.84 569.09 443.96Q569.48 443.08 569.48 442.11Q569.48 441 568.95 440.18Q568.42 439.37 567.5 438.93Q566.58 438.48 565.44 438.48Q564.22 438.48 563.32 438.98Q562.42 439.48 561.93 440.38Q561.44 441.28 561.44 442.48L559.01 442.48Q559.01 440.63 559.87 439.23Q560.72 437.83 562.2 437.04Q563.68 436.26 565.52 436.26Q567.38 436.26 568.81 437.04Q570.24 437.83 571.05 439.15Q571.87 440.48 571.87 442.11Q571.87 443.27 571.45 444.38Q571.03 445.49 570.01 446.84Q568.98 448.2 567.17 450.14L562.43 455.21L562.43 455.37L572.24 455.37L572.24 457.64Z"/></g><g fill="#27272a"><path d="M859.38 457.64L859.38 455.79L866.34 448.16Q867.57 446.83 868.36 445.83Q869.16 444.84 869.54 443.96Q869.93 443.08 869.93 442.11Q869.93 441 869.4 440.18Q868.87 439.37 867.95 438.93Q867.03 438.48 865.89 438.48Q864.68 438.48 863.78 438.98Q862.87 439.48 862.39 440.38Q861.9 441.28 861.9 442.48L859.47 442.48Q859.47 440.63 860.32 439.23Q861.18 437.83 862.65 437.04Q864.13 436.26 865.97 436.26Q867.83 436.26 869.26 437.04Q870.69 437.83 871.5 439.15Q872.32 440.48 872.32 442.11Q872.32 443.27 871.9 444.38Q871.48 445.49 870.46 446.84Q869.43 448.2 867.62 450.14L862.88 455.21L862.88 455.37L872.69 455.37L872.69 457.64ZM884.06 457.93Q882.02 457.93 880.43 457.23Q878.84 456.53 877.9 455.28Q876.97 454.02 876.89 452.37L879.49 452.37Q879.57 453.39 880.19 454.12Q880.8 454.86 881.8 455.26Q882.8 455.66 884.02 455.66Q885.38 455.66 886.43 455.19Q887.48 454.71 888.07 453.87Q888.67 453.03 888.67 451.91Q888.67 450.75 888.09 449.86Q887.52 448.97 886.41 448.46Q885.29 447.96 883.69 447.96L882 447.96L882 445.69L883.69 445.69Q884.94 445.69 885.9 445.24Q886.85 444.79 887.39 443.96Q887.93 443.14 887.93 442.03Q887.93 440.96 887.46 440.16Q886.98 439.37 886.12 438.93Q885.26 438.48 884.1 438.48Q883.01 438.48 882.04 438.88Q881.08 439.28 880.47 440.02Q879.87 440.77 879.82 441.82L877.34 441.82Q877.41 440.16 878.34 438.91Q879.28 437.66 880.8 436.96Q882.32 436.26 884.14 436.26Q886.1 436.26 887.5 437.05Q888.9 437.84 889.65 439.12Q890.4 440.41 890.4 441.9Q890.4 443.68 889.47 444.94Q888.54 446.2 886.94 446.68L886.94 446.85Q888.94 447.18 890.06 448.54Q891.18 449.91 891.18 451.91Q891.18 453.63 890.25 455Q889.32 456.36 887.71 457.14Q886.11 457.93 884.06 457.93Z"/></g><g fill="#27272a"><path d="M965.38 457.64L965.38 455.79L972.34 448.16Q973.57 446.83 974.36 445.83Q975.16 444.84 975.54 443.96Q975.93 443.08 975.93 442.11Q975.93 441 975.4 440.18Q974.87 439.37 973.95 438.93Q973.03 438.48 971.89 438.48Q970.68 438.48 969.78 438.98Q968.87 439.48 968.39 440.38Q967.9 441.28 967.9 442.48L965.47 442.48Q965.47 440.63 966.32 439.23Q967.18 437.83 968.65 437.04Q970.13 436.26 971.97 436.26Q973.83 436.26 975.26 437.04Q976.69 437.83 977.5 439.15Q978.32 440.48 978.32 442.11Q978.32 443.27 977.9 444.38Q977.48 445.49 976.46 446.84Q975.43 448.2 973.62 450.14L968.88 455.21L968.88 455.37L978.69 455.37L978.69 457.64ZM982.44 453.31L982.44 451.21L991.71 436.55L993.23 436.55L993.23 439.8L992.2 439.8L985.2 450.88L985.2 451.05L997.68 451.05L997.68 453.31ZM992.36 457.64L992.36 452.68L992.36 451.7L992.36 436.55L994.8 436.55L994.8 457.64Z"/></g><g fill="#27272a"><path d="M223.38 563.64L223.38 561.79L230.34 554.16Q231.57 552.83 232.36 551.83Q233.16 550.84 233.54 549.96Q233.93 549.08 233.93 548.11Q233.93 547 233.4 546.18Q232.87 545.37 231.95 544.93Q231.03 544.48 229.89 544.48Q228.68 544.48 227.78 544.98Q226.87 545.48 226.39 546.38Q225.9 547.28 225.9 548.48L223.47 548.48Q223.47 546.63 224.32 545.23Q225.18 543.83 226.65 543.04Q228.13 542.26 229.97 542.26Q231.83 542.26 233.26 543.04Q234.69 543.83 235.5 545.15Q236.32 546.48 236.32 548.11Q236.32 549.27 235.9 550.38Q235.48 551.49 234.46 552.84Q233.43 554.2 231.62 556.14L226.88 561.21L226.88 561.37L236.69 561.37L236.69 563.64ZM247.52 563.93Q245.71 563.93 244.26 563.21Q242.81 562.49 241.93 561.23Q241.06 559.97 240.97 558.37L243.44 558.37Q243.59 559.8 244.75 560.73Q245.91 561.66 247.52 561.66Q248.82 561.66 249.83 561.05Q250.85 560.45 251.43 559.38Q252.01 558.31 252.01 556.97Q252.01 555.59 251.41 554.5Q250.81 553.41 249.76 552.78Q248.71 552.16 247.36 552.15Q246.39 552.14 245.37 552.44Q244.35 552.74 243.69 553.22L241.3 552.93L242.58 542.55L253.54 542.55L253.54 544.81L244.72 544.81L243.98 551.03L244.1 551.03Q244.75 550.52 245.73 550.18Q246.71 549.84 247.77 549.84Q249.71 549.84 251.22 550.76Q252.74 551.68 253.61 553.28Q254.48 554.88 254.48 556.92Q254.48 558.94 253.58 560.52Q252.68 562.1 251.11 563.02Q249.53 563.93 247.52 563.93Z"/></g><g fill="#27272a"><path d="M965.38 563.64L965.38 561.79L972.34 554.16Q973.57 552.83 974.36 551.83Q975.16 550.84 975.54 549.96Q975.93 549.08 975.93 548.11Q975.93 547 975.4 546.18Q974.87 545.37 973.95 544.93Q973.03 544.48 971.89 544.48Q970.68 544.48 969.78 544.98Q968.87 545.48 968.39 546.38Q967.9 547.28 967.9 548.48L965.47 548.48Q965.47 546.63 966.32 545.23Q967.18 543.83 968.65 543.04Q970.13 542.26 971.97 542.26Q973.83 542.26 975.26 543.04Q976.69 543.83 977.5 545.15Q978.32 546.48 978.32 548.11Q978.32 549.27 977.9 550.38Q977.48 551.49 976.46 552.84Q975.43 554.2 973.62 556.14L968.88 561.21L968.88 561.37L978.69 561.37L978.69 563.64ZM989.93 563.93Q988.64 563.91 987.34 563.43Q986.04 562.96 984.97 561.83Q983.9 560.7 983.25 558.77Q982.6 556.84 982.6 553.92Q982.6 551.12 983.13 548.95Q983.65 546.78 984.65 545.29Q985.65 543.8 987.07 543.03Q988.48 542.26 990.26 542.26Q992.04 542.26 993.42 542.97Q994.81 543.67 995.68 544.93Q996.56 546.18 996.81 547.82L994.3 547.82Q993.95 546.4 992.94 545.46Q991.93 544.53 990.26 544.53Q987.81 544.53 986.41 546.66Q985 548.79 984.99 552.64L985.16 552.64Q985.73 551.77 986.53 551.14Q987.33 550.52 988.3 550.18Q989.26 549.84 990.35 549.84Q992.16 549.84 993.66 550.74Q995.17 551.64 996.07 553.22Q996.98 554.8 996.98 556.84Q996.98 558.8 996.1 560.42Q995.23 562.04 993.65 563Q992.07 563.95 989.93 563.93ZM989.93 561.66Q991.23 561.66 992.27 561.01Q993.3 560.36 993.9 559.27Q994.51 558.18 994.51 556.84Q994.51 555.53 993.92 554.46Q993.34 553.38 992.33 552.74Q991.31 552.11 990.02 552.11Q989.04 552.11 988.19 552.49Q987.35 552.88 986.72 553.55Q986.08 554.22 985.72 555.08Q985.36 555.94 985.36 556.88Q985.36 558.14 985.95 559.23Q986.55 560.32 987.58 560.99Q988.62 561.66 989.93 561.66Z"/></g><g fill="#27272a"><path d="M1283.38 563.64L1283.38 561.79L1290.34 554.16Q1291.57 552.83 1292.36 551.83Q1293.16 550.84 1293.54 549.96Q1293.93 549.08 1293.93 548.11Q1293.93 547 1293.4 546.18Q1292.87 545.37 1291.95 544.93Q1291.03 544.48 1289.89 544.48Q1288.68 544.48 1287.78 544.98Q1286.87 545.48 1286.39 546.38Q1285.9 547.28 1285.9 548.48L1283.47 548.48Q1283.47 546.63 1284.32 545.23Q1285.18 543.83 1286.65 543.04Q1288.13 542.26 1289.97 542.26Q1291.83 542.26 1293.26 543.04Q1294.69 543.83 1295.5 545.15Q1296.32 546.48 1296.32 548.11Q1296.32 549.27 1295.9 550.38Q1295.48 551.49 1294.46 552.84Q1293.43 554.2 1291.62 556.14L1286.88 561.21L1286.88 561.37L1296.69 561.37L1296.69 563.64ZM1301.59 563.64L1311.02 544.98L1311.02 544.81L1300.15 544.81L1300.15 542.55L1313.66 542.55L1313.66 544.94L1304.27 563.64Z"/></g><g fill="#27272a"><path d="M11.38 669.64L11.38 667.79L18.34 660.16Q19.57 658.83 20.36 657.83Q21.16 656.84 21.54 655.96Q21.93 655.08 21.93 654.11Q21.93 653 21.4 652.18Q20.87 651.37 19.95 650.93Q19.03 650.48 17.89 650.48Q16.68 650.48 15.78 650.98Q14.87 651.48 14.39 652.38Q13.9 653.28 13.9 654.48L11.47 654.48Q11.47 652.63 12.32 651.23Q13.18 649.83 14.65 649.04Q16.13 648.26 17.97 648.26Q19.83 648.26 21.26 649.04Q22.69 649.83 23.5 651.15Q24.32 652.48 24.32 654.11Q24.32 655.27 23.9 656.38Q23.48 657.49 22.46 658.84Q21.43 660.2 19.62 662.14L14.88 667.21L14.88 667.37L24.69 667.37L24.69 669.64ZM35.69 669.93Q33.57 669.93 31.94 669.17Q30.32 668.41 29.42 667.08Q28.51 665.75 28.52 664.04Q28.51 662.7 29.04 661.56Q29.58 660.42 30.51 659.65Q31.44 658.89 32.6 658.68L32.6 658.56Q31.08 658.17 30.19 656.85Q29.29 655.54 29.3 653.86Q29.29 652.26 30.12 650.99Q30.94 649.72 32.39 648.99Q33.83 648.26 35.69 648.26Q37.52 648.26 38.96 648.99Q40.4 649.72 41.23 650.99Q42.06 652.26 42.07 653.86Q42.06 655.54 41.16 656.85Q40.26 658.17 38.78 658.56L38.78 658.68Q39.92 658.89 40.84 659.65Q41.75 660.42 42.3 661.56Q42.84 662.7 42.85 664.04Q42.84 665.75 41.93 667.08Q41.02 668.41 39.41 669.17Q37.8 669.93 35.69 669.93ZM35.69 667.66Q37.12 667.66 38.16 667.2Q39.2 666.73 39.77 665.89Q40.33 665.05 40.34 663.91Q40.33 662.72 39.72 661.8Q39.12 660.89 38.07 660.36Q37.03 659.84 35.69 659.84Q34.34 659.84 33.28 660.36Q32.23 660.89 31.62 661.8Q31.02 662.72 31.03 663.91Q31.02 665.05 31.58 665.89Q32.14 666.73 33.2 667.2Q34.25 667.66 35.69 667.66ZM35.69 657.65Q36.82 657.65 37.7 657.2Q38.58 656.75 39.09 655.93Q39.59 655.12 39.6 654.03Q39.59 652.96 39.1 652.16Q38.6 651.36 37.73 650.92Q36.85 650.48 35.69 650.48Q34.5 650.48 33.62 650.92Q32.73 651.36 32.25 652.16Q31.76 652.96 31.77 654.03Q31.76 655.12 32.26 655.93Q32.76 656.75 33.65 657.2Q34.53 657.65 35.69 657.65Z"/></g><g fill="#27272a"><path d="M117.38 669.64L117.38 667.79L124.34 660.16Q125.57 658.83 126.36 657.83Q127.16 656.84 127.54 655.96Q127.93 655.08 127.93 654.11Q127.93 653 127.4 652.18Q126.87 651.37 125.95 650.93Q125.03 650.48 123.89 650.48Q122.68 650.48 121.78 650.98Q120.87 651.48 120.39 652.38Q119.9 653.28 119.9 654.48L117.47 654.48Q117.47 652.63 118.32 651.23Q119.18 649.83 120.65 649.04Q122.13 648.26 123.97 648.26Q125.83 648.26 127.26 649.04Q128.69 649.83 129.5 651.15Q130.32 652.48 130.32 654.11Q130.32 655.27 129.9 656.38Q129.48 657.49 128.46 658.84Q127.43 660.2 125.62 662.14L120.88 667.21L120.88 667.37L130.69 667.37L130.69 669.64ZM141.65 648.26Q142.94 648.27 144.24 648.75Q145.54 649.24 146.61 650.36Q147.68 651.47 148.33 653.4Q148.98 655.32 148.98 658.23Q148.98 661.04 148.45 663.22Q147.92 665.4 146.92 666.89Q145.93 668.38 144.51 669.16Q143.1 669.93 141.32 669.93Q139.55 669.93 138.16 669.22Q136.77 668.52 135.89 667.26Q135.01 665.99 134.77 664.33L137.28 664.33Q137.62 665.78 138.63 666.72Q139.65 667.66 141.32 667.66Q143.76 667.66 145.17 665.53Q146.59 663.4 146.59 659.51L146.42 659.51Q145.85 660.37 145.05 661Q144.26 661.63 143.29 661.97Q142.33 662.31 141.23 662.31Q139.42 662.31 137.91 661.41Q136.4 660.5 135.5 658.92Q134.6 657.34 134.6 655.3Q134.6 653.37 135.47 651.76Q136.34 650.14 137.92 649.19Q139.5 648.23 141.65 648.26ZM141.65 650.53Q140.35 650.53 139.31 651.17Q138.28 651.81 137.68 652.9Q137.07 653.99 137.07 655.3Q137.07 656.62 137.66 657.7Q138.24 658.77 139.25 659.41Q140.27 660.04 141.56 660.04Q142.54 660.04 143.39 659.65Q144.23 659.27 144.86 658.59Q145.5 657.92 145.86 657.06Q146.22 656.2 146.22 655.26Q146.22 654.03 145.63 652.95Q145.03 651.86 144 651.19Q142.96 650.53 141.65 650.53Z"/></g><g fill="#27272a"><path d="M548.51 669.93Q546.47 669.93 544.88 669.23Q543.29 668.53 542.36 667.28Q541.42 666.02 541.34 664.37L543.94 664.37Q544.02 665.39 544.64 666.12Q545.26 666.86 546.25 667.26Q547.25 667.66 548.47 667.66Q549.83 667.66 550.88 667.19Q551.93 666.71 552.53 665.87Q553.12 665.03 553.12 663.91Q553.12 662.75 552.55 661.86Q551.97 660.97 550.86 660.46Q549.75 659.96 548.14 659.96L546.45 659.96L546.45 657.69L548.14 657.69Q549.4 657.69 550.35 657.24Q551.3 656.79 551.84 655.96Q552.38 655.14 552.38 654.03Q552.38 652.96 551.91 652.16Q551.43 651.37 550.57 650.93Q549.71 650.48 548.55 650.48Q547.46 650.48 546.5 650.88Q545.53 651.28 544.93 652.02Q544.32 652.77 544.27 653.82L541.8 653.82Q541.86 652.16 542.79 650.91Q543.73 649.66 545.25 648.96Q546.77 648.26 548.59 648.26Q550.55 648.26 551.95 649.05Q553.35 649.84 554.1 651.12Q554.85 652.41 554.85 653.9Q554.85 655.68 553.92 656.94Q552.99 658.2 551.39 658.68L551.39 658.85Q553.39 659.18 554.51 660.54Q555.64 661.91 555.64 663.91Q555.64 665.63 554.7 667Q553.77 668.36 552.17 669.14Q550.56 669.93 548.51 669.93ZM566.72 669.93Q564.39 669.93 562.75 668.66Q561.11 667.38 560.25 664.96Q559.38 662.53 559.38 659.09Q559.38 655.67 560.25 653.25Q561.13 650.82 562.77 649.54Q564.41 648.26 566.72 648.26Q569.02 648.26 570.67 649.54Q572.31 650.82 573.18 653.25Q574.05 655.67 574.05 659.09Q574.05 662.53 573.18 664.96Q572.32 667.38 570.68 668.66Q569.04 669.93 566.72 669.93ZM566.72 667.66Q569.02 667.66 570.3 665.44Q571.58 663.21 571.58 659.09Q571.58 656.35 571 654.43Q570.41 652.5 569.33 651.49Q568.24 650.48 566.72 650.48Q564.43 650.48 563.14 652.73Q561.86 654.98 561.86 659.09Q561.86 661.83 562.43 663.75Q563.01 665.66 564.1 666.66Q565.18 667.66 566.72 667.66Z"/></g><g fill="#27272a"><path d="M654.51 669.93Q652.47 669.93 650.88 669.23Q649.29 668.53 648.36 667.28Q647.42 666.02 647.34 664.37L649.94 664.37Q650.02 665.39 650.64 666.12Q651.26 666.86 652.25 667.26Q653.25 667.66 654.47 667.66Q655.83 667.66 656.88 667.19Q657.93 666.71 658.53 665.87Q659.12 665.03 659.12 663.91Q659.12 662.75 658.55 661.86Q657.97 660.97 656.86 660.46Q655.75 659.96 654.14 659.96L652.45 659.96L652.45 657.69L654.14 657.69Q655.4 657.69 656.35 657.24Q657.3 656.79 657.84 655.96Q658.38 655.14 658.38 654.03Q658.38 652.96 657.91 652.16Q657.43 651.37 656.57 650.93Q655.71 650.48 654.55 650.48Q653.46 650.48 652.5 650.88Q651.53 651.28 650.93 652.02Q650.32 652.77 650.27 653.82L647.8 653.82Q647.86 652.16 648.79 650.91Q649.73 649.66 651.25 648.96Q652.77 648.26 654.59 648.26Q656.55 648.26 657.95 649.05Q659.35 649.84 660.1 651.12Q660.85 652.41 660.85 653.9Q660.85 655.68 659.92 656.94Q658.99 658.2 657.39 658.68L657.39 658.85Q659.39 659.18 660.51 660.54Q661.64 661.91 661.64 663.91Q661.64 665.63 660.7 667Q659.77 668.36 658.17 669.14Q656.56 669.93 654.51 669.93ZM673.25 648.55L673.25 669.64L670.7 669.64L670.7 651.23L670.58 651.23L665.43 654.64L665.43 652.05L670.7 648.55Z"/></g><g fill="#27272a"><path d="M760.51 669.93Q758.47 669.93 756.88 669.23Q755.29 668.53 754.36 667.28Q753.42 666.02 753.34 664.37L755.94 664.37Q756.02 665.39 756.64 666.12Q757.26 666.86 758.25 667.26Q759.25 667.66 760.47 667.66Q761.83 667.66 762.88 667.19Q763.93 666.71 764.53 665.87Q765.12 665.03 765.12 663.91Q765.12 662.75 764.55 661.86Q763.97 660.97 762.86 660.46Q761.75 659.96 760.14 659.96L758.45 659.96L758.45 657.69L760.14 657.69Q761.4 657.69 762.35 657.24Q763.3 656.79 763.84 655.96Q764.38 655.14 764.38 654.03Q764.38 652.96 763.91 652.16Q763.43 651.37 762.57 650.93Q761.71 650.48 760.55 650.48Q759.46 650.48 758.5 650.88Q757.53 651.28 756.93 652.02Q756.32 652.77 756.27 653.82L753.8 653.82Q753.86 652.16 754.79 650.91Q755.73 649.66 757.25 648.96Q758.77 648.26 760.59 648.26Q762.55 648.26 763.95 649.05Q765.35 649.84 766.1 651.12Q766.85 652.41 766.85 653.9Q766.85 655.68 765.92 656.94Q764.99 658.2 763.39 658.68L763.39 658.85Q765.39 659.18 766.51 660.54Q767.64 661.91 767.64 663.91Q767.64 665.63 766.7 667Q765.77 668.36 764.17 669.14Q762.56 669.93 760.51 669.93ZM771.84 669.64L771.84 667.79L778.8 660.16Q780.02 658.83 780.82 657.83Q781.61 656.84 782 655.96Q782.38 655.08 782.38 654.11Q782.38 653 781.85 652.18Q781.32 651.37 780.41 650.93Q779.49 650.48 778.35 650.48Q777.13 650.48 776.23 650.98Q775.33 651.48 774.84 652.38Q774.35 653.28 774.35 654.48L771.92 654.48Q771.92 652.63 772.77 651.23Q773.63 649.83 775.11 649.04Q776.59 648.26 778.43 648.26Q780.28 648.26 781.71 649.04Q783.15 649.83 783.96 651.15Q784.77 652.48 784.77 654.11Q784.77 655.27 784.36 656.38Q783.94 657.49 782.91 658.84Q781.89 660.2 780.08 662.14L775.34 667.21L775.34 667.37L785.14 667.37L785.14 669.64Z"/></g><g fill="#27272a"><path d="M866.51 669.93Q864.47 669.93 862.88 669.23Q861.29 668.53 860.36 667.28Q859.42 666.02 859.34 664.37L861.94 664.37Q862.02 665.39 862.64 666.12Q863.26 666.86 864.25 667.26Q865.25 667.66 866.47 667.66Q867.83 667.66 868.88 667.19Q869.93 666.71 870.53 665.87Q871.12 665.03 871.12 663.91Q871.12 662.75 870.55 661.86Q869.97 660.97 868.86 660.46Q867.75 659.96 866.14 659.96L864.45 659.96L864.45 657.69L866.14 657.69Q867.4 657.69 868.35 657.24Q869.3 656.79 869.84 655.96Q870.38 655.14 870.38 654.03Q870.38 652.96 869.91 652.16Q869.43 651.37 868.57 650.93Q867.71 650.48 866.55 650.48Q865.46 650.48 864.5 650.88Q863.53 651.28 862.93 652.02Q862.32 652.77 862.27 653.82L859.8 653.82Q859.86 652.16 860.79 650.91Q861.73 649.66 863.25 648.96Q864.77 648.26 866.59 648.26Q868.55 648.26 869.95 649.05Q871.35 649.84 872.1 651.12Q872.85 652.41 872.85 653.9Q872.85 655.68 871.92 656.94Q870.99 658.2 869.39 658.68L869.39 658.85Q871.39 659.18 872.51 660.54Q873.64 661.91 873.64 663.91Q873.64 665.63 872.7 667Q871.77 668.36 870.17 669.14Q868.56 669.93 866.51 669.93ZM884.96 669.93Q882.93 669.93 881.33 669.23Q879.74 668.53 878.81 667.28Q877.88 666.02 877.8 664.37L880.39 664.37Q880.47 665.39 881.09 666.12Q881.71 666.86 882.71 667.26Q883.71 667.66 884.92 667.66Q886.28 667.66 887.33 667.19Q888.38 666.71 888.98 665.87Q889.58 665.03 889.58 663.91Q889.58 662.75 889 661.86Q888.42 660.97 887.31 660.46Q886.2 659.96 884.59 659.96L882.9 659.96L882.9 657.69L884.59 657.69Q885.85 657.69 886.8 657.24Q887.76 656.79 888.3 655.96Q888.84 655.14 888.84 654.03Q888.84 652.96 888.36 652.16Q887.89 651.37 887.03 650.93Q886.17 650.48 885.01 650.48Q883.91 650.48 882.95 650.88Q881.99 651.28 881.38 652.02Q880.77 652.77 880.72 653.82L878.25 653.82Q878.31 652.16 879.25 650.91Q880.19 649.66 881.7 648.96Q883.22 648.26 885.05 648.26Q887 648.26 888.4 649.05Q889.8 649.84 890.56 651.12Q891.31 652.41 891.31 653.9Q891.31 655.68 890.38 656.94Q889.44 658.2 887.85 658.68L887.85 658.85Q889.85 659.18 890.97 660.54Q892.09 661.91 892.09 663.91Q892.09 665.63 891.16 667Q890.23 668.36 888.62 669.14Q887.01 669.93 884.96 669.93Z"/></g><g fill="#27272a"><path d="M1184.51 669.93Q1182.47 669.93 1180.88 669.23Q1179.29 668.53 1178.36 667.28Q1177.42 666.02 1177.34 664.37L1179.94 664.37Q1180.02 665.39 1180.64 666.12Q1181.26 666.86 1182.25 667.26Q1183.25 667.66 1184.47 667.66Q1185.83 667.66 1186.88 667.19Q1187.93 666.71 1188.53 665.87Q1189.12 665.03 1189.12 663.91Q1189.12 662.75 1188.55 661.86Q1187.97 660.97 1186.86 660.46Q1185.75 659.96 1184.14 659.96L1182.45 659.96L1182.45 657.69L1184.14 657.69Q1185.4 657.69 1186.35 657.24Q1187.3 656.79 1187.84 655.96Q1188.38 655.14 1188.38 654.03Q1188.38 652.96 1187.91 652.16Q1187.43 651.37 1186.57 650.93Q1185.71 650.48 1184.55 650.48Q1183.46 650.48 1182.5 650.88Q1181.53 651.28 1180.93 652.02Q1180.32 652.77 1180.27 653.82L1177.8 653.82Q1177.86 652.16 1178.79 650.91Q1179.73 649.66 1181.25 648.96Q1182.77 648.26 1184.59 648.26Q1186.55 648.26 1187.95 649.05Q1189.35 649.84 1190.1 651.12Q1190.85 652.41 1190.85 653.9Q1190.85 655.68 1189.92 656.94Q1188.99 658.2 1187.39 658.68L1187.39 658.85Q1189.39 659.18 1190.51 660.54Q1191.64 661.91 1191.64 663.91Q1191.64 665.63 1190.7 667Q1189.77 668.36 1188.17 669.14Q1186.56 669.93 1184.51 669.93ZM1195.34 665.31L1195.34 663.21L1204.61 648.55L1206.14 648.55L1206.14 651.8L1205.11 651.8L1198.1 662.88L1198.1 663.05L1210.58 663.05L1210.58 665.31ZM1205.27 669.64L1205.27 664.68L1205.27 663.7L1205.27 648.55L1207.7 648.55L1207.7 669.64Z"/></g><g fill="#27272a"><path d="M1396.51 669.93Q1394.47 669.93 1392.88 669.23Q1391.29 668.53 1390.36 667.28Q1389.42 666.02 1389.34 664.37L1391.94 664.37Q1392.02 665.39 1392.64 666.12Q1393.26 666.86 1394.25 667.26Q1395.25 667.66 1396.47 667.66Q1397.83 667.66 1398.88 667.19Q1399.93 666.71 1400.53 665.87Q1401.12 665.03 1401.12 663.91Q1401.12 662.75 1400.55 661.86Q1399.97 660.97 1398.86 660.46Q1397.75 659.96 1396.14 659.96L1394.45 659.96L1394.45 657.69L1396.14 657.69Q1397.4 657.69 1398.35 657.24Q1399.3 656.79 1399.84 655.96Q1400.38 655.14 1400.38 654.03Q1400.38 652.96 1399.91 652.16Q1399.43 651.37 1398.57 650.93Q1397.71 650.48 1396.55 650.48Q1395.46 650.48 1394.5 650.88Q1393.53 651.28 1392.93 652.02Q1392.32 652.77 1392.27 653.82L1389.8 653.82Q1389.86 652.16 1390.79 650.91Q1391.73 649.66 1393.25 648.96Q1394.77 648.26 1396.59 648.26Q1398.55 648.26 1399.95 649.05Q1401.35 649.84 1402.1 651.12Q1402.85 652.41 1402.85 653.9Q1402.85 655.68 1401.92 656.94Q1400.99 658.2 1399.39 658.68L1399.39 658.85Q1401.39 659.18 1402.51 660.54Q1403.64 661.91 1403.64 663.91Q1403.64 665.63 1402.7 667Q1401.77 668.36 1400.17 669.14Q1398.56 669.93 1396.51 669.93ZM1414.43 669.93Q1412.62 669.93 1411.16 669.21Q1409.71 668.49 1408.84 667.23Q1407.96 665.97 1407.88 664.37L1410.35 664.37Q1410.49 665.8 1411.65 666.73Q1412.81 667.66 1414.43 667.66Q1415.73 667.66 1416.74 667.05Q1417.76 666.45 1418.34 665.38Q1418.92 664.31 1418.92 662.97Q1418.92 661.59 1418.32 660.5Q1417.71 659.41 1416.66 658.78Q1415.61 658.16 1414.26 658.15Q1413.3 658.14 1412.28 658.44Q1411.26 658.74 1410.6 659.22L1408.21 658.93L1409.49 648.55L1420.44 648.55L1420.44 650.81L1411.63 650.81L1410.89 657.03L1411.01 657.03Q1411.66 656.52 1412.64 656.18Q1413.62 655.84 1414.68 655.84Q1416.61 655.84 1418.13 656.76Q1419.65 657.68 1420.52 659.28Q1421.39 660.88 1421.39 662.92Q1421.39 664.94 1420.49 666.52Q1419.59 668.1 1418.01 669.02Q1416.44 669.93 1414.43 669.93Z"/></g><g fill="#27272a"><path d="M1502.51 669.93Q1500.47 669.93 1498.88 669.23Q1497.29 668.53 1496.36 667.28Q1495.42 666.02 1495.34 664.37L1497.94 664.37Q1498.02 665.39 1498.64 666.12Q1499.26 666.86 1500.25 667.26Q1501.25 667.66 1502.47 667.66Q1503.83 667.66 1504.88 667.19Q1505.93 666.71 1506.53 665.87Q1507.12 665.03 1507.12 663.91Q1507.12 662.75 1506.55 661.86Q1505.97 660.97 1504.86 660.46Q1503.75 659.96 1502.14 659.96L1500.45 659.96L1500.45 657.69L1502.14 657.69Q1503.4 657.69 1504.35 657.24Q1505.3 656.79 1505.84 655.96Q1506.38 655.14 1506.38 654.03Q1506.38 652.96 1505.91 652.16Q1505.43 651.37 1504.57 650.93Q1503.71 650.48 1502.55 650.48Q1501.46 650.48 1500.5 650.88Q1499.53 651.28 1498.93 652.02Q1498.32 652.77 1498.27 653.82L1495.8 653.82Q1495.86 652.16 1496.79 650.91Q1497.73 649.66 1499.25 648.96Q1500.77 648.26 1502.59 648.26Q1504.55 648.26 1505.95 649.05Q1507.35 649.84 1508.1 651.12Q1508.85 652.41 1508.85 653.9Q1508.85 655.68 1507.92 656.94Q1506.99 658.2 1505.39 658.68L1505.39 658.85Q1507.39 659.18 1508.51 660.54Q1509.64 661.91 1509.64 663.91Q1509.64 665.63 1508.7 667Q1507.77 668.36 1506.17 669.14Q1504.56 669.93 1502.51 669.93ZM1520.84 669.93Q1519.54 669.91 1518.25 669.43Q1516.95 668.96 1515.88 667.83Q1514.81 666.7 1514.16 664.77Q1513.51 662.84 1513.51 659.92Q1513.51 657.12 1514.03 654.95Q1514.56 652.78 1515.56 651.29Q1516.56 649.8 1517.97 649.03Q1519.39 648.26 1521.17 648.26Q1522.94 648.26 1524.33 648.97Q1525.71 649.67 1526.59 650.93Q1527.46 652.18 1527.72 653.82L1525.21 653.82Q1524.86 652.4 1523.85 651.46Q1522.84 650.53 1521.17 650.53Q1518.72 650.53 1517.31 652.66Q1515.91 654.79 1515.9 658.64L1516.06 658.64Q1516.64 657.77 1517.44 657.14Q1518.24 656.52 1519.2 656.18Q1520.17 655.84 1521.25 655.84Q1523.07 655.84 1524.57 656.74Q1526.07 657.64 1526.98 659.22Q1527.88 660.8 1527.88 662.84Q1527.88 664.8 1527.01 666.42Q1526.13 668.04 1524.55 669Q1522.97 669.95 1520.84 669.93ZM1520.84 667.66Q1522.14 667.66 1523.17 667.01Q1524.21 666.36 1524.81 665.27Q1525.41 664.18 1525.41 662.84Q1525.41 661.53 1524.83 660.46Q1524.25 659.38 1523.23 658.74Q1522.22 658.11 1520.92 658.11Q1519.94 658.11 1519.1 658.49Q1518.26 658.88 1517.62 659.55Q1516.99 660.22 1516.63 661.08Q1516.27 661.94 1516.27 662.88Q1516.27 664.14 1516.86 665.23Q1517.45 666.32 1518.49 666.99Q1519.52 667.66 1520.84 667.66Z"/></g><g fill="#27272a"><path d="M18.51 775.93Q16.47 775.93 14.88 775.23Q13.29 774.53 12.36 773.28Q11.42 772.02 11.34 770.37L13.94 770.37Q14.02 771.39 14.64 772.12Q15.26 772.86 16.25 773.26Q17.25 773.66 18.47 773.66Q19.83 773.66 20.88 773.19Q21.93 772.71 22.53 771.87Q23.12 771.03 23.12 769.91Q23.12 768.75 22.55 767.86Q21.97 766.97 20.86 766.46Q19.75 765.96 18.14 765.96L16.45 765.96L16.45 763.69L18.14 763.69Q19.4 763.69 20.35 763.24Q21.3 762.79 21.84 761.96Q22.38 761.14 22.38 760.03Q22.38 758.96 21.91 758.16Q21.43 757.37 20.57 756.93Q19.71 756.48 18.55 756.48Q17.46 756.48 16.5 756.88Q15.53 757.28 14.93 758.02Q14.32 758.77 14.27 759.82L11.8 759.82Q11.86 758.16 12.79 756.91Q13.73 755.66 15.25 754.96Q16.77 754.26 18.59 754.26Q20.55 754.26 21.95 755.05Q23.35 755.84 24.1 757.12Q24.85 758.41 24.85 759.9Q24.85 761.68 23.92 762.94Q22.99 764.2 21.39 764.68L21.39 764.85Q23.39 765.18 24.51 766.54Q25.64 767.91 25.64 769.91Q25.64 771.63 24.7 773Q23.77 774.36 22.17 775.14Q20.56 775.93 18.51 775.93ZM30.5 775.64L39.93 756.98L39.93 756.81L29.06 756.81L29.06 754.55L42.57 754.55L42.57 756.94L33.17 775.64Z"/></g><g fill="#27272a"><path d="M442.51 775.93Q440.47 775.93 438.88 775.23Q437.29 774.53 436.36 773.28Q435.42 772.02 435.34 770.37L437.94 770.37Q438.02 771.39 438.64 772.12Q439.26 772.86 440.25 773.26Q441.25 773.66 442.47 773.66Q443.83 773.66 444.88 773.19Q445.93 772.71 446.53 771.87Q447.12 771.03 447.12 769.91Q447.12 768.75 446.55 767.86Q445.97 766.97 444.86 766.46Q443.75 765.96 442.14 765.96L440.45 765.96L440.45 763.69L442.14 763.69Q443.4 763.69 444.35 763.24Q445.3 762.79 445.84 761.96Q446.38 761.14 446.38 760.03Q446.38 758.96 445.91 758.16Q445.43 757.37 444.57 756.93Q443.71 756.48 442.55 756.48Q441.46 756.48 440.5 756.88Q439.53 757.28 438.93 758.02Q438.32 758.77 438.27 759.82L435.8 759.82Q435.86 758.16 436.79 756.91Q437.73 755.66 439.25 754.96Q440.77 754.26 442.59 754.26Q444.55 754.26 445.95 755.05Q447.35 755.84 448.1 757.12Q448.85 758.41 448.85 759.9Q448.85 761.68 447.92 762.94Q446.99 764.2 445.39 764.68L445.39 764.85Q447.39 765.18 448.51 766.54Q449.64 767.91 449.64 769.91Q449.64 771.63 448.7 773Q447.77 774.36 446.17 775.14Q444.56 775.93 442.51 775.93ZM460.59 775.93Q458.47 775.93 456.85 775.17Q455.23 774.41 454.32 773.08Q453.42 771.75 453.43 770.04Q453.42 768.7 453.95 767.56Q454.49 766.42 455.42 765.65Q456.35 764.89 457.5 764.68L457.5 764.56Q455.99 764.17 455.09 762.85Q454.2 761.54 454.21 759.86Q454.2 758.26 455.02 756.99Q455.85 755.72 457.29 754.99Q458.74 754.26 460.59 754.26Q462.43 754.26 463.87 754.99Q465.31 755.72 466.14 756.99Q466.97 758.26 466.98 759.86Q466.97 761.54 466.07 762.85Q465.17 764.17 463.68 764.56L463.68 764.68Q464.83 764.89 465.74 765.65Q466.66 766.42 467.2 767.56Q467.75 768.7 467.76 770.04Q467.75 771.75 466.84 773.08Q465.93 774.41 464.32 775.17Q462.7 775.93 460.59 775.93ZM460.59 773.66Q462.02 773.66 463.07 773.2Q464.11 772.73 464.67 771.89Q465.24 771.05 465.25 769.91Q465.24 768.72 464.63 767.8Q464.02 766.89 462.98 766.36Q461.93 765.84 460.59 765.84Q459.24 765.84 458.19 766.36Q457.13 766.89 456.53 767.8Q455.93 768.72 455.94 769.91Q455.93 771.05 456.49 771.89Q457.05 772.73 458.1 773.2Q459.15 773.66 460.59 773.66ZM460.59 763.65Q461.73 763.65 462.61 763.2Q463.49 762.75 463.99 761.93Q464.5 761.12 464.51 760.03Q464.5 758.96 464 758.16Q463.51 757.36 462.63 756.92Q461.76 756.48 460.59 756.48Q459.41 756.48 458.52 756.92Q457.64 757.36 457.15 758.16Q456.67 758.96 456.68 760.03Q456.67 761.12 457.17 761.93Q457.67 762.75 458.55 763.2Q459.44 763.65 460.59 763.65Z"/></g><g fill="#27272a"><path d="M1078.51 775.93Q1076.47 775.93 1074.88 775.23Q1073.29 774.53 1072.36 773.28Q1071.42 772.02 1071.34 770.37L1073.94 770.37Q1074.02 771.39 1074.64 772.12Q1075.26 772.86 1076.25 773.26Q1077.25 773.66 1078.47 773.66Q1079.83 773.66 1080.88 773.19Q1081.93 772.71 1082.53 771.87Q1083.12 771.03 1083.12 769.91Q1083.12 768.75 1082.55 767.86Q1081.97 766.97 1080.86 766.46Q1079.75 765.96 1078.14 765.96L1076.45 765.96L1076.45 763.69L1078.14 763.69Q1079.4 763.69 1080.35 763.24Q1081.3 762.79 1081.84 761.96Q1082.38 761.14 1082.38 760.03Q1082.38 758.96 1081.91 758.16Q1081.43 757.37 1080.57 756.93Q1079.71 756.48 1078.55 756.48Q1077.46 756.48 1076.5 756.88Q1075.53 757.28 1074.93 758.02Q1074.32 758.77 1074.27 759.82L1071.8 759.82Q1071.86 758.16 1072.79 756.91Q1073.73 755.66 1075.25 754.96Q1076.77 754.26 1078.59 754.26Q1080.55 754.26 1081.95 755.05Q1083.35 755.84 1084.1 757.12Q1084.85 758.41 1084.85 759.9Q1084.85 761.68 1083.92 762.94Q1082.99 764.2 1081.39 764.68L1081.39 764.85Q1083.39 765.18 1084.51 766.54Q1085.64 767.91 1085.64 769.91Q1085.64 771.63 1084.7 773Q1083.77 774.36 1082.17 775.14Q1080.56 775.93 1078.51 775.93ZM1096.55 754.26Q1097.85 754.27 1099.15 754.75Q1100.45 755.24 1101.52 756.36Q1102.59 757.47 1103.24 759.4Q1103.88 761.32 1103.88 764.23Q1103.88 767.04 1103.35 769.22Q1102.82 771.4 1101.83 772.89Q1100.84 774.38 1099.42 775.16Q1098 775.93 1096.22 775.93Q1094.45 775.93 1093.07 775.22Q1091.68 774.52 1090.8 773.26Q1089.92 771.99 1089.67 770.33L1092.19 770.33Q1092.53 771.78 1093.54 772.72Q1094.55 773.66 1096.22 773.66Q1098.66 773.66 1100.08 771.53Q1101.5 769.4 1101.5 765.51L1101.33 765.51Q1100.75 766.37 1099.96 767Q1099.17 767.63 1098.2 767.97Q1097.23 768.31 1096.14 768.31Q1094.33 768.31 1092.82 767.41Q1091.31 766.5 1090.41 764.92Q1089.51 763.34 1089.51 761.3Q1089.51 759.37 1090.38 757.76Q1091.25 756.14 1092.83 755.19Q1094.41 754.23 1096.55 754.26ZM1096.55 756.53Q1095.25 756.53 1094.22 757.17Q1093.18 757.81 1092.58 758.9Q1091.98 759.99 1091.98 761.3Q1091.98 762.62 1092.56 763.7Q1093.14 764.77 1094.16 765.41Q1095.17 766.04 1096.47 766.04Q1097.45 766.04 1098.29 765.65Q1099.14 765.27 1099.77 764.59Q1100.4 763.92 1100.76 763.06Q1101.12 762.2 1101.12 761.26Q1101.12 760.03 1100.53 758.95Q1099.94 757.86 1098.91 757.19Q1097.87 756.53 1096.55 756.53Z"/></g><g fill="#27272a"><path d="M1282.89 771.31L1282.89 769.21L1292.16 754.55L1293.68 754.55L1293.68 757.8L1292.65 757.8L1285.65 768.88L1285.65 769.05L1298.13 769.05L1298.13 771.31ZM1292.82 775.64L1292.82 770.68L1292.82 769.7L1292.82 754.55L1295.25 754.55L1295.25 775.64ZM1308.88 775.93Q1306.55 775.93 1304.92 774.66Q1303.28 773.38 1302.41 770.96Q1301.55 768.53 1301.55 765.09Q1301.55 761.67 1302.42 759.25Q1303.29 756.82 1304.93 755.54Q1306.58 754.26 1308.88 754.26Q1311.19 754.26 1312.83 755.54Q1314.47 756.82 1315.34 759.25Q1316.21 761.67 1316.21 765.09Q1316.21 768.53 1315.35 770.96Q1314.48 773.38 1312.85 774.66Q1311.21 775.93 1308.88 775.93ZM1308.88 773.66Q1311.19 773.66 1312.47 771.44Q1313.74 769.21 1313.74 765.09Q1313.74 762.35 1313.16 760.43Q1312.58 758.5 1311.49 757.49Q1310.41 756.48 1308.88 756.48Q1306.6 756.48 1305.31 758.73Q1304.02 760.98 1304.02 765.09Q1304.02 767.83 1304.6 769.75Q1305.17 771.66 1306.26 772.66Q1307.35 773.66 1308.88 773.66Z"/></g><g fill="#27272a"><path d="M10.89 877.31L10.89 875.21L20.16 860.55L21.68 860.55L21.68 863.8L20.65 863.8L13.65 874.88L13.65 875.05L26.13 875.05L26.13 877.31ZM20.82 881.64L20.82 876.68L20.82 875.7L20.82 860.55L23.25 860.55L23.25 881.64ZM37.42 860.55L37.42 881.64L34.86 881.64L34.86 863.23L34.74 863.23L29.59 866.64L29.59 864.05L34.86 860.55Z"/></g><g fill="#27272a"><path d="M328.89 877.31L328.89 875.21L338.16 860.55L339.68 860.55L339.68 863.8L338.65 863.8L331.65 874.88L331.65 875.05L344.13 875.05L344.13 877.31ZM338.82 881.64L338.82 876.68L338.82 875.7L338.82 860.55L341.25 860.55L341.25 881.64ZM348 881.64L348 879.79L354.96 872.16Q356.19 870.83 356.98 869.83Q357.78 868.84 358.16 867.96Q358.55 867.08 358.55 866.11Q358.55 865 358.02 864.18Q357.49 863.37 356.57 862.93Q355.65 862.48 354.51 862.48Q353.3 862.48 352.39 862.98Q351.49 863.48 351 864.38Q350.52 865.28 350.52 866.48L348.08 866.48Q348.08 864.63 348.94 863.23Q349.79 861.83 351.27 861.04Q352.75 860.26 354.59 860.26Q356.45 860.26 357.88 861.04Q359.31 861.83 360.12 863.15Q360.94 864.48 360.94 866.11Q360.94 867.27 360.52 868.38Q360.1 869.49 359.08 870.84Q358.05 872.2 356.24 874.14L351.5 879.21L351.5 879.37L361.31 879.37L361.31 881.64Z"/></g><g fill="#27272a"><path d="M1176.89 877.31L1176.89 875.21L1186.16 860.55L1187.68 860.55L1187.68 863.8L1186.65 863.8L1179.65 874.88L1179.65 875.05L1192.13 875.05L1192.13 877.31ZM1186.82 881.64L1186.82 876.68L1186.82 875.7L1186.82 860.55L1189.25 860.55L1189.25 881.64ZM1203.13 881.93Q1201.09 881.93 1199.5 881.23Q1197.91 880.53 1196.98 879.28Q1196.04 878.02 1195.96 876.37L1198.56 876.37Q1198.64 877.39 1199.26 878.12Q1199.87 878.86 1200.87 879.26Q1201.87 879.66 1203.09 879.66Q1204.45 879.66 1205.5 879.19Q1206.55 878.71 1207.15 877.87Q1207.74 877.03 1207.74 875.91Q1207.74 874.75 1207.17 873.86Q1206.59 872.97 1205.48 872.46Q1204.36 871.96 1202.76 871.96L1201.07 871.96L1201.07 869.69L1202.76 869.69Q1204.01 869.69 1204.97 869.24Q1205.92 868.79 1206.46 867.96Q1207 867.14 1207 866.03Q1207 864.96 1206.53 864.16Q1206.05 863.37 1205.19 862.93Q1204.33 862.48 1203.17 862.48Q1202.08 862.48 1201.12 862.88Q1200.15 863.28 1199.55 864.02Q1198.94 864.77 1198.89 865.82L1196.41 865.82Q1196.48 864.16 1197.41 862.91Q1198.35 861.66 1199.87 860.96Q1201.39 860.26 1203.21 860.26Q1205.17 860.26 1206.57 861.05Q1207.97 861.84 1208.72 863.12Q1209.47 864.41 1209.47 865.9Q1209.47 867.68 1208.54 868.94Q1207.61 870.2 1206.01 870.68L1206.01 870.85Q1208.01 871.18 1209.13 872.54Q1210.26 873.91 1210.26 875.91Q1210.26 877.63 1209.32 879Q1208.39 880.36 1206.78 881.14Q1205.18 881.93 1203.13 881.93Z"/></g><g fill="#27272a"><path d="M116.89 983.31L116.89 981.21L126.16 966.55L127.68 966.55L127.68 969.8L126.65 969.8L119.65 980.88L119.65 981.05L132.13 981.05L132.13 983.31ZM126.82 987.64L126.82 982.68L126.82 981.7L126.82 966.55L129.25 966.55L129.25 987.64ZM135.51 983.31L135.51 981.21L144.78 966.55L146.3 966.55L146.3 969.8L145.27 969.8L138.27 980.88L138.27 981.05L150.75 981.05L150.75 983.31ZM145.44 987.64L145.44 982.68L145.44 981.7L145.44 966.55L147.87 966.55L147.87 987.64Z"/></g><g fill="#27272a"><path d="M964.89 983.31L964.89 981.21L974.16 966.55L975.68 966.55L975.68 969.8L974.65 969.8L967.65 980.88L967.65 981.05L980.13 981.05L980.13 983.31ZM974.82 987.64L974.82 982.68L974.82 981.7L974.82 966.55L977.25 966.55L977.25 987.64ZM990.59 987.93Q988.78 987.93 987.33 987.21Q985.88 986.49 985 985.23Q984.13 983.97 984.04 982.37L986.52 982.37Q986.66 983.8 987.82 984.73Q988.98 985.66 990.59 985.66Q991.89 985.66 992.91 985.05Q993.92 984.45 994.5 983.38Q995.08 982.31 995.08 980.97Q995.08 979.59 994.48 978.5Q993.88 977.41 992.83 976.78Q991.78 976.16 990.43 976.15Q989.46 976.14 988.44 976.44Q987.42 976.74 986.76 977.22L984.37 976.93L985.65 966.55L996.61 966.55L996.61 968.81L987.79 968.81L987.05 975.03L987.17 975.03Q987.82 974.52 988.8 974.18Q989.78 973.84 990.84 973.84Q992.78 973.84 994.3 974.76Q995.81 975.68 996.68 977.28Q997.56 978.88 997.56 980.92Q997.56 982.94 996.65 984.52Q995.75 986.1 994.18 987.02Q992.6 987.93 990.59 987.93Z"/></g><g fill="#27272a"><path d="M116.89 1089.31L116.89 1087.21L126.16 1072.55L127.68 1072.55L127.68 1075.8L126.65 1075.8L119.65 1086.88L119.65 1087.05L132.13 1087.05L132.13 1089.31ZM126.82 1093.64L126.82 1088.68L126.82 1087.7L126.82 1072.55L129.25 1072.55L129.25 1093.64ZM143.01 1093.93Q141.71 1093.91 140.41 1093.43Q139.11 1092.96 138.04 1091.83Q136.97 1090.7 136.32 1088.77Q135.67 1086.84 135.67 1083.92Q135.67 1081.12 136.2 1078.95Q136.72 1076.78 137.72 1075.29Q138.72 1073.8 140.14 1073.03Q141.55 1072.26 143.33 1072.26Q145.11 1072.26 146.49 1072.97Q147.88 1073.67 148.75 1074.93Q149.63 1076.18 149.88 1077.82L147.37 1077.82Q147.02 1076.4 146.01 1075.46Q145 1074.53 143.33 1074.53Q140.88 1074.53 139.48 1076.66Q138.07 1078.79 138.06 1082.64L138.23 1082.64Q138.8 1081.77 139.6 1081.14Q140.4 1080.52 141.37 1080.18Q142.34 1079.84 143.42 1079.84Q145.23 1079.84 146.73 1080.74Q148.24 1081.64 149.14 1083.22Q150.05 1084.8 150.05 1086.84Q150.05 1088.8 149.17 1090.42Q148.3 1092.04 146.72 1093Q145.14 1093.95 143.01 1093.93ZM143.01 1091.66Q144.3 1091.66 145.34 1091.01Q146.37 1090.36 146.98 1089.27Q147.58 1088.18 147.58 1086.84Q147.58 1085.53 147 1084.46Q146.41 1083.38 145.4 1082.74Q144.39 1082.11 143.09 1082.11Q142.11 1082.11 141.26 1082.49Q140.42 1082.88 139.79 1083.55Q139.15 1084.22 138.79 1085.08Q138.43 1085.94 138.43 1086.88Q138.43 1088.14 139.03 1089.23Q139.62 1090.32 140.65 1090.99Q141.69 1091.66 143.01 1091.66Z"/></g><g fill="#27272a"><path d="M540.89 1089.31L540.89 1087.21L550.16 1072.55L551.68 1072.55L551.68 1075.8L550.65 1075.8L543.65 1086.88L543.65 1087.05L556.13 1087.05L556.13 1089.31ZM550.82 1093.64L550.82 1088.68L550.82 1087.7L550.82 1072.55L553.25 1072.55L553.25 1093.64ZM560.66 1093.64L570.09 1074.98L570.09 1074.81L559.22 1074.81L559.22 1072.55L572.73 1072.55L572.73 1074.94L563.34 1093.64Z"/></g><g fill="#27272a"><path d="M646.89 1089.31L646.89 1087.21L656.16 1072.55L657.68 1072.55L657.68 1075.8L656.65 1075.8L649.65 1086.88L649.65 1087.05L662.13 1087.05L662.13 1089.31ZM656.82 1093.64L656.82 1088.68L656.82 1087.7L656.82 1072.55L659.25 1072.55L659.25 1093.64ZM672.76 1093.93Q670.64 1093.93 669.01 1093.17Q667.39 1092.41 666.49 1091.08Q665.58 1089.75 665.59 1088.04Q665.58 1086.7 666.12 1085.56Q666.65 1084.42 667.58 1083.65Q668.52 1082.89 669.67 1082.68L669.67 1082.56Q668.15 1082.17 667.26 1080.85Q666.36 1079.54 666.37 1077.86Q666.36 1076.26 667.19 1074.99Q668.01 1073.72 669.46 1072.99Q670.9 1072.26 672.76 1072.26Q674.59 1072.26 676.03 1072.99Q677.47 1073.72 678.3 1074.99Q679.13 1076.26 679.14 1077.86Q679.13 1079.54 678.23 1080.85Q677.33 1082.17 675.85 1082.56L675.85 1082.68Q676.99 1082.89 677.91 1083.65Q678.82 1084.42 679.37 1085.56Q679.92 1086.7 679.93 1088.04Q679.92 1089.75 679 1091.08Q678.09 1092.41 676.48 1093.17Q674.87 1093.93 672.76 1093.93ZM672.76 1091.66Q674.19 1091.66 675.23 1091.2Q676.27 1090.73 676.84 1089.89Q677.4 1089.05 677.41 1087.91Q677.4 1086.72 676.8 1085.8Q676.19 1084.89 675.14 1084.36Q674.1 1083.84 672.76 1083.84Q671.41 1083.84 670.35 1084.36Q669.3 1084.89 668.7 1085.8Q668.09 1086.72 668.1 1087.91Q668.09 1089.05 668.65 1089.89Q669.22 1090.73 670.27 1091.2Q671.32 1091.66 672.76 1091.66ZM672.76 1081.65Q673.89 1081.65 674.77 1081.2Q675.65 1080.75 676.16 1079.93Q676.66 1079.12 676.67 1078.03Q676.66 1076.96 676.17 1076.16Q675.67 1075.36 674.8 1074.92Q673.92 1074.48 672.76 1074.48Q671.57 1074.48 670.69 1074.92Q669.8 1075.36 669.32 1076.16Q668.83 1076.96 668.84 1078.03Q668.83 1079.12 669.33 1079.93Q669.83 1080.75 670.72 1081.2Q671.6 1081.65 672.76 1081.65Z"/></g><g fill="#27272a"><path d="M752.89 1089.31L752.89 1087.21L762.16 1072.55L763.68 1072.55L763.68 1075.8L762.65 1075.8L755.65 1086.88L755.65 1087.05L768.13 1087.05L768.13 1089.31ZM762.82 1093.64L762.82 1088.68L762.82 1087.7L762.82 1072.55L765.25 1072.55L765.25 1093.64ZM778.72 1072.26Q780.01 1072.27 781.31 1072.75Q782.61 1073.24 783.68 1074.36Q784.75 1075.47 785.4 1077.4Q786.05 1079.32 786.05 1082.23Q786.05 1085.04 785.52 1087.22Q784.99 1089.4 783.99 1090.89Q783 1092.38 781.59 1093.16Q780.17 1093.93 778.39 1093.93Q776.62 1093.93 775.23 1093.22Q773.85 1092.52 772.97 1091.26Q772.08 1089.99 771.84 1088.33L774.35 1088.33Q774.69 1089.78 775.7 1090.72Q776.72 1091.66 778.39 1091.66Q780.83 1091.66 782.24 1089.53Q783.66 1087.4 783.66 1083.51L783.5 1083.51Q782.92 1084.37 782.13 1085Q781.33 1085.63 780.36 1085.97Q779.4 1086.31 778.31 1086.31Q776.49 1086.31 774.98 1085.41Q773.48 1084.5 772.57 1082.92Q771.67 1081.34 771.67 1079.3Q771.67 1077.37 772.54 1075.76Q773.41 1074.14 774.99 1073.19Q776.58 1072.23 778.72 1072.26ZM778.72 1074.53Q777.42 1074.53 776.38 1075.17Q775.35 1075.81 774.75 1076.9Q774.14 1077.99 774.14 1079.3Q774.14 1080.62 774.73 1081.7Q775.31 1082.77 776.32 1083.41Q777.34 1084.04 778.63 1084.04Q779.61 1084.04 780.46 1083.65Q781.3 1083.27 781.94 1082.59Q782.57 1081.92 782.93 1081.06Q783.29 1080.2 783.29 1079.26Q783.29 1078.03 782.7 1076.95Q782.11 1075.86 781.07 1075.19Q780.04 1074.53 778.72 1074.53Z"/></g><g fill="#27272a"><path d="M865.97 1093.93Q864.16 1093.93 862.71 1093.21Q861.26 1092.49 860.38 1091.23Q859.51 1089.97 859.42 1088.37L861.9 1088.37Q862.04 1089.8 863.2 1090.73Q864.36 1091.66 865.97 1091.66Q867.27 1091.66 868.29 1091.05Q869.3 1090.45 869.88 1089.38Q870.46 1088.31 870.46 1086.97Q870.46 1085.59 869.86 1084.5Q869.26 1083.41 868.21 1082.78Q867.16 1082.16 865.81 1082.15Q864.84 1082.14 863.82 1082.44Q862.8 1082.74 862.14 1083.22L859.75 1082.93L861.03 1072.55L871.99 1072.55L871.99 1074.81L863.17 1074.81L862.43 1081.03L862.56 1081.03Q863.2 1080.52 864.18 1080.18Q865.16 1079.84 866.22 1079.84Q868.16 1079.84 869.68 1080.76Q871.2 1081.68 872.07 1083.28Q872.94 1084.88 872.94 1086.92Q872.94 1088.94 872.03 1090.52Q871.13 1092.1 869.56 1093.02Q867.98 1093.93 865.97 1093.93ZM883.89 1093.93Q881.57 1093.93 879.93 1092.66Q878.29 1091.38 877.43 1088.96Q876.56 1086.53 876.56 1083.09Q876.56 1079.67 877.43 1077.25Q878.3 1074.82 879.94 1073.54Q881.59 1072.26 883.89 1072.26Q886.2 1072.26 887.84 1073.54Q889.49 1074.82 890.36 1077.25Q891.23 1079.67 891.23 1083.09Q891.23 1086.53 890.36 1088.96Q889.5 1091.38 887.86 1092.66Q886.22 1093.93 883.89 1093.93ZM883.89 1091.66Q886.2 1091.66 887.48 1089.44Q888.75 1087.21 888.75 1083.09Q888.75 1080.35 888.17 1078.43Q887.59 1076.5 886.5 1075.49Q885.42 1074.48 883.89 1074.48Q881.61 1074.48 880.32 1076.73Q879.03 1078.98 879.03 1083.09Q879.03 1085.83 879.61 1087.75Q880.19 1089.66 881.27 1090.66Q882.36 1091.66 883.89 1091.66Z"/></g><g fill="#27272a"><path d="M1183.97 1093.93Q1182.16 1093.93 1180.71 1093.21Q1179.26 1092.49 1178.38 1091.23Q1177.51 1089.97 1177.42 1088.37L1179.9 1088.37Q1180.04 1089.8 1181.2 1090.73Q1182.36 1091.66 1183.97 1091.66Q1185.27 1091.66 1186.29 1091.05Q1187.3 1090.45 1187.88 1089.38Q1188.46 1088.31 1188.46 1086.97Q1188.46 1085.59 1187.86 1084.5Q1187.26 1083.41 1186.21 1082.78Q1185.16 1082.16 1183.81 1082.15Q1182.84 1082.14 1181.82 1082.44Q1180.8 1082.74 1180.14 1083.22L1177.75 1082.93L1179.03 1072.55L1189.99 1072.55L1189.99 1074.81L1181.17 1074.81L1180.43 1081.03L1180.56 1081.03Q1181.2 1080.52 1182.18 1080.18Q1183.16 1079.84 1184.22 1079.84Q1186.16 1079.84 1187.68 1080.76Q1189.2 1081.68 1190.07 1083.28Q1190.94 1084.88 1190.94 1086.92Q1190.94 1088.94 1190.03 1090.52Q1189.13 1092.1 1187.56 1093.02Q1185.98 1093.93 1183.97 1093.93ZM1202.43 1072.55L1202.43 1093.64L1199.87 1093.64L1199.87 1075.23L1199.75 1075.23L1194.6 1078.64L1194.6 1076.05L1199.87 1072.55Z"/></g><g fill="#27272a"><path d="M229.97 1199.93Q228.16 1199.93 226.71 1199.21Q225.26 1198.49 224.38 1197.23Q223.51 1195.97 223.42 1194.37L225.9 1194.37Q226.04 1195.8 227.2 1196.73Q228.36 1197.66 229.97 1197.66Q231.27 1197.66 232.29 1197.05Q233.3 1196.45 233.88 1195.38Q234.46 1194.31 234.46 1192.97Q234.46 1191.59 233.86 1190.5Q233.26 1189.41 232.21 1188.78Q231.16 1188.16 229.81 1188.15Q228.84 1188.14 227.82 1188.44Q226.8 1188.74 226.14 1189.22L223.75 1188.93L225.03 1178.55L235.99 1178.55L235.99 1180.81L227.17 1180.81L226.43 1187.03L226.56 1187.03Q227.2 1186.52 228.18 1186.18Q229.16 1185.84 230.22 1185.84Q232.16 1185.84 233.68 1186.76Q235.2 1187.68 236.07 1189.28Q236.94 1190.88 236.94 1192.92Q236.94 1194.94 236.03 1196.52Q235.13 1198.1 233.56 1199.02Q231.98 1199.93 229.97 1199.93ZM241.01 1199.64L241.01 1197.79L247.98 1190.16Q249.2 1188.83 249.99 1187.83Q250.79 1186.84 251.17 1185.96Q251.56 1185.08 251.56 1184.11Q251.56 1183 251.03 1182.18Q250.5 1181.37 249.58 1180.93Q248.67 1180.48 247.52 1180.48Q246.31 1180.48 245.41 1180.98Q244.51 1181.48 244.02 1182.38Q243.53 1183.28 243.53 1184.48L241.1 1184.48Q241.1 1182.63 241.95 1181.23Q242.81 1179.83 244.28 1179.04Q245.76 1178.26 247.6 1178.26Q249.46 1178.26 250.89 1179.04Q252.32 1179.83 253.14 1181.15Q253.95 1182.48 253.95 1184.11Q253.95 1185.27 253.53 1186.38Q253.11 1187.49 252.09 1188.84Q251.07 1190.2 249.25 1192.14L244.52 1197.21L244.52 1197.37L254.32 1197.37L254.32 1199.64Z"/></g><g fill="#27272a"><path d="M441.97 1199.93Q440.16 1199.93 438.71 1199.21Q437.26 1198.49 436.38 1197.23Q435.51 1195.97 435.42 1194.37L437.9 1194.37Q438.04 1195.8 439.2 1196.73Q440.36 1197.66 441.97 1197.66Q443.27 1197.66 444.29 1197.05Q445.3 1196.45 445.88 1195.38Q446.46 1194.31 446.46 1192.97Q446.46 1191.59 445.86 1190.5Q445.26 1189.41 444.21 1188.78Q443.16 1188.16 441.81 1188.15Q440.84 1188.14 439.82 1188.44Q438.8 1188.74 438.14 1189.22L435.75 1188.93L437.03 1178.55L447.99 1178.55L447.99 1180.81L439.17 1180.81L438.43 1187.03L438.56 1187.03Q439.2 1186.52 440.18 1186.18Q441.16 1185.84 442.22 1185.84Q444.16 1185.84 445.68 1186.76Q447.2 1187.68 448.07 1189.28Q448.94 1190.88 448.94 1192.92Q448.94 1194.94 448.03 1196.52Q447.13 1198.1 445.56 1199.02Q443.98 1199.93 441.97 1199.93ZM460.14 1199.93Q458.1 1199.93 456.51 1199.23Q454.92 1198.53 453.99 1197.28Q453.06 1196.02 452.97 1194.37L455.57 1194.37Q455.65 1195.39 456.27 1196.12Q456.89 1196.86 457.89 1197.26Q458.88 1197.66 460.1 1197.66Q461.46 1197.66 462.51 1197.19Q463.56 1196.71 464.16 1195.87Q464.75 1195.03 464.75 1193.91Q464.75 1192.75 464.18 1191.86Q463.6 1190.97 462.49 1190.46Q461.38 1189.96 459.77 1189.96L458.08 1189.96L458.08 1187.69L459.77 1187.69Q461.03 1187.69 461.98 1187.24Q462.93 1186.79 463.47 1185.96Q464.01 1185.14 464.01 1184.03Q464.01 1182.96 463.54 1182.16Q463.07 1181.37 462.21 1180.93Q461.35 1180.48 460.18 1180.48Q459.09 1180.48 458.13 1180.88Q457.16 1181.28 456.56 1182.02Q455.95 1182.77 455.9 1183.82L453.43 1183.82Q453.49 1182.16 454.42 1180.91Q455.36 1179.66 456.88 1178.96Q458.4 1178.26 460.22 1178.26Q462.18 1178.26 463.58 1179.05Q464.98 1179.84 465.73 1181.12Q466.48 1182.41 466.48 1183.9Q466.48 1185.68 465.55 1186.94Q464.62 1188.2 463.02 1188.68L463.02 1188.85Q465.02 1189.18 466.14 1190.54Q467.27 1191.91 467.27 1193.91Q467.27 1195.63 466.33 1197Q465.4 1198.36 463.8 1199.14Q462.19 1199.93 460.14 1199.93Z"/></g><g fill="#27272a"><path d="M653.97 1199.93Q652.16 1199.93 650.71 1199.21Q649.26 1198.49 648.38 1197.23Q647.51 1195.97 647.42 1194.37L649.9 1194.37Q650.04 1195.8 651.2 1196.73Q652.36 1197.66 653.97 1197.66Q655.27 1197.66 656.29 1197.05Q657.3 1196.45 657.88 1195.38Q658.46 1194.31 658.46 1192.97Q658.46 1191.59 657.86 1190.5Q657.26 1189.41 656.21 1188.78Q655.16 1188.16 653.81 1188.15Q652.84 1188.14 651.82 1188.44Q650.8 1188.74 650.14 1189.22L647.75 1188.93L649.03 1178.55L659.99 1178.55L659.99 1180.81L651.17 1180.81L650.43 1187.03L650.56 1187.03Q651.2 1186.52 652.18 1186.18Q653.16 1185.84 654.22 1185.84Q656.16 1185.84 657.68 1186.76Q659.2 1187.68 660.07 1189.28Q660.94 1190.88 660.94 1192.92Q660.94 1194.94 660.03 1196.52Q659.13 1198.1 657.56 1199.02Q655.98 1199.93 653.97 1199.93ZM664.52 1195.31L664.52 1193.21L673.79 1178.55L675.31 1178.55L675.31 1181.8L674.28 1181.8L667.28 1192.88L667.28 1193.05L679.76 1193.05L679.76 1195.31ZM674.45 1199.64L674.45 1194.68L674.45 1193.7L674.45 1178.55L676.88 1178.55L676.88 1199.64Z"/></g><g fill="#27272a"><path d="M1077.97 1199.93Q1076.16 1199.93 1074.71 1199.21Q1073.26 1198.49 1072.38 1197.23Q1071.51 1195.97 1071.42 1194.37L1073.9 1194.37Q1074.04 1195.8 1075.2 1196.73Q1076.36 1197.66 1077.97 1197.66Q1079.27 1197.66 1080.29 1197.05Q1081.3 1196.45 1081.88 1195.38Q1082.46 1194.31 1082.46 1192.97Q1082.46 1191.59 1081.86 1190.5Q1081.26 1189.41 1080.21 1188.78Q1079.16 1188.16 1077.81 1188.15Q1076.84 1188.14 1075.82 1188.44Q1074.8 1188.74 1074.14 1189.22L1071.75 1188.93L1073.03 1178.55L1083.99 1178.55L1083.99 1180.81L1075.17 1180.81L1074.43 1187.03L1074.56 1187.03Q1075.2 1186.52 1076.18 1186.18Q1077.16 1185.84 1078.22 1185.84Q1080.16 1185.84 1081.68 1186.76Q1083.2 1187.68 1084.07 1189.28Q1084.94 1190.88 1084.94 1192.92Q1084.94 1194.94 1084.03 1196.52Q1083.13 1198.1 1081.56 1199.02Q1079.98 1199.93 1077.97 1199.93ZM1095.6 1199.93Q1093.79 1199.93 1092.34 1199.21Q1090.89 1198.49 1090.01 1197.23Q1089.14 1195.97 1089.06 1194.37L1091.53 1194.37Q1091.67 1195.8 1092.83 1196.73Q1093.99 1197.66 1095.6 1197.66Q1096.9 1197.66 1097.92 1197.05Q1098.93 1196.45 1099.51 1195.38Q1100.09 1194.31 1100.09 1192.97Q1100.09 1191.59 1099.49 1190.5Q1098.89 1189.41 1097.84 1188.78Q1096.79 1188.16 1095.44 1188.15Q1094.47 1188.14 1093.45 1188.44Q1092.43 1188.74 1091.77 1189.22L1089.38 1188.93L1090.66 1178.55L1101.62 1178.55L1101.62 1180.81L1092.8 1180.81L1092.06 1187.03L1092.19 1187.03Q1092.83 1186.52 1093.81 1186.18Q1094.79 1185.84 1095.85 1185.84Q1097.79 1185.84 1099.31 1186.76Q1100.83 1187.68 1101.7 1189.28Q1102.57 1190.88 1102.57 1192.92Q1102.57 1194.94 1101.67 1196.52Q1100.76 1198.1 1099.19 1199.02Q1097.61 1199.93 1095.6 1199.93Z"/></g><g fill="#27272a"><path d="M17.97 1305.93Q16.16 1305.93 14.71 1305.21Q13.26 1304.49 12.38 1303.23Q11.51 1301.97 11.42 1300.37L13.9 1300.37Q14.04 1301.8 15.2 1302.73Q16.36 1303.66 17.97 1303.66Q19.27 1303.66 20.29 1303.05Q21.3 1302.45 21.88 1301.38Q22.46 1300.31 22.46 1298.97Q22.46 1297.59 21.86 1296.5Q21.26 1295.41 20.21 1294.78Q19.16 1294.16 17.81 1294.15Q16.84 1294.14 15.82 1294.44Q14.8 1294.74 14.14 1295.22L11.75 1294.93L13.03 1284.55L23.99 1284.55L23.99 1286.81L15.17 1286.81L14.43 1293.03L14.56 1293.03Q15.2 1292.52 16.18 1292.18Q17.16 1291.84 18.22 1291.84Q20.16 1291.84 21.68 1292.76Q23.2 1293.68 24.07 1295.28Q24.94 1296.88 24.94 1298.92Q24.94 1300.94 24.03 1302.52Q23.13 1304.1 21.56 1305.02Q19.98 1305.93 17.97 1305.93ZM36.02 1305.93Q34.72 1305.91 33.42 1305.43Q32.12 1304.96 31.05 1303.83Q29.98 1302.7 29.33 1300.77Q28.68 1298.84 28.68 1295.92Q28.68 1293.12 29.21 1290.95Q29.73 1288.78 30.73 1287.29Q31.73 1285.8 33.15 1285.03Q34.56 1284.26 36.35 1284.26Q38.12 1284.26 39.5 1284.97Q40.89 1285.67 41.76 1286.93Q42.64 1288.18 42.9 1289.82L40.38 1289.82Q40.03 1288.4 39.02 1287.46Q38.01 1286.53 36.35 1286.53Q33.9 1286.53 32.49 1288.66Q31.08 1290.79 31.07 1294.64L31.24 1294.64Q31.82 1293.77 32.61 1293.14Q33.41 1292.52 34.38 1292.18Q35.35 1291.84 36.43 1291.84Q38.24 1291.84 39.74 1292.74Q41.25 1293.64 42.15 1295.22Q43.06 1296.8 43.06 1298.84Q43.06 1300.8 42.19 1302.42Q41.31 1304.04 39.73 1305Q38.15 1305.95 36.02 1305.93ZM36.02 1303.66Q37.31 1303.66 38.35 1303.01Q39.38 1302.36 39.99 1301.27Q40.59 1300.18 40.59 1298.84Q40.59 1297.53 40.01 1296.46Q39.43 1295.38 38.41 1294.74Q37.4 1294.11 36.1 1294.11Q35.12 1294.11 34.28 1294.49Q33.43 1294.88 32.8 1295.55Q32.17 1296.22 31.8 1297.08Q31.44 1297.94 31.44 1298.88Q31.44 1300.14 32.04 1301.23Q32.63 1302.32 33.66 1302.99Q34.7 1303.66 36.02 1303.66Z"/></g><g fill="#27272a"><path d="M123.97 1305.93Q122.16 1305.93 120.71 1305.21Q119.26 1304.49 118.38 1303.23Q117.51 1301.97 117.42 1300.37L119.9 1300.37Q120.04 1301.8 121.2 1302.73Q122.36 1303.66 123.97 1303.66Q125.27 1303.66 126.29 1303.05Q127.3 1302.45 127.88 1301.38Q128.46 1300.31 128.46 1298.97Q128.46 1297.59 127.86 1296.5Q127.26 1295.41 126.21 1294.78Q125.16 1294.16 123.81 1294.15Q122.84 1294.14 121.82 1294.44Q120.8 1294.74 120.14 1295.22L117.75 1294.93L119.03 1284.55L129.99 1284.55L129.99 1286.81L121.17 1286.81L120.43 1293.03L120.56 1293.03Q121.2 1292.52 122.18 1292.18Q123.16 1291.84 124.22 1291.84Q126.16 1291.84 127.68 1292.76Q129.2 1293.68 130.07 1295.28Q130.94 1296.88 130.94 1298.92Q130.94 1300.94 130.03 1302.52Q129.13 1304.1 127.56 1305.02Q125.98 1305.93 123.97 1305.93ZM135.67 1305.64L145.11 1286.98L145.11 1286.81L134.23 1286.81L134.23 1284.55L147.74 1284.55L147.74 1286.94L138.35 1305.64Z"/></g><g fill="#27272a"><path d="M441.97 1305.93Q440.16 1305.93 438.71 1305.21Q437.26 1304.49 436.38 1303.23Q435.51 1301.97 435.42 1300.37L437.9 1300.37Q438.04 1301.8 439.2 1302.73Q440.36 1303.66 441.97 1303.66Q443.27 1303.66 444.29 1303.05Q445.3 1302.45 445.88 1301.38Q446.46 1300.31 446.46 1298.97Q446.46 1297.59 445.86 1296.5Q445.26 1295.41 444.21 1294.78Q443.16 1294.16 441.81 1294.15Q440.84 1294.14 439.82 1294.44Q438.8 1294.74 438.14 1295.22L435.75 1294.93L437.03 1284.55L447.99 1284.55L447.99 1286.81L439.17 1286.81L438.43 1293.03L438.56 1293.03Q439.2 1292.52 440.18 1292.18Q441.16 1291.84 442.22 1291.84Q444.16 1291.84 445.68 1292.76Q447.2 1293.68 448.07 1295.28Q448.94 1296.88 448.94 1298.92Q448.94 1300.94 448.03 1302.52Q447.13 1304.1 445.56 1305.02Q443.98 1305.93 441.97 1305.93ZM459.77 1305.93Q457.65 1305.93 456.03 1305.17Q454.4 1304.41 453.5 1303.08Q452.59 1301.75 452.6 1300.04Q452.59 1298.7 453.13 1297.56Q453.66 1296.42 454.59 1295.65Q455.53 1294.89 456.68 1294.68L456.68 1294.56Q455.17 1294.17 454.27 1292.85Q453.37 1291.54 453.38 1289.86Q453.37 1288.26 454.2 1286.99Q455.02 1285.72 456.47 1284.99Q457.92 1284.26 459.77 1284.26Q461.6 1284.26 463.04 1284.99Q464.49 1285.72 465.32 1286.99Q466.14 1288.26 466.15 1289.86Q466.14 1291.54 465.24 1292.85Q464.34 1294.17 462.86 1294.56L462.86 1294.68Q464 1294.89 464.92 1295.65Q465.84 1296.42 466.38 1297.56Q466.93 1298.7 466.94 1300.04Q466.93 1301.75 466.02 1303.08Q465.1 1304.41 463.49 1305.17Q461.88 1305.93 459.77 1305.93ZM459.77 1303.66Q461.2 1303.66 462.24 1303.2Q463.28 1302.73 463.85 1301.89Q464.41 1301.05 464.42 1299.91Q464.41 1298.72 463.81 1297.8Q463.2 1296.89 462.15 1296.36Q461.11 1295.84 459.77 1295.84Q458.42 1295.84 457.36 1296.36Q456.31 1296.89 455.71 1297.8Q455.1 1298.72 455.11 1299.91Q455.1 1301.05 455.67 1301.89Q456.23 1302.73 457.28 1303.2Q458.33 1303.66 459.77 1303.66ZM459.77 1293.65Q460.9 1293.65 461.78 1293.2Q462.66 1292.75 463.17 1291.93Q463.67 1291.12 463.68 1290.03Q463.67 1288.96 463.18 1288.16Q462.68 1287.36 461.81 1286.92Q460.93 1286.48 459.77 1286.48Q458.59 1286.48 457.7 1286.92Q456.81 1287.36 456.33 1288.16Q455.85 1288.96 455.86 1290.03Q455.85 1291.12 456.35 1291.93Q456.84 1292.75 457.73 1293.2Q458.62 1293.65 459.77 1293.65Z"/></g><g fill="#27272a"><path d="M547.97 1305.93Q546.16 1305.93 544.71 1305.21Q543.26 1304.49 542.38 1303.23Q541.51 1301.97 541.42 1300.37L543.9 1300.37Q544.04 1301.8 545.2 1302.73Q546.36 1303.66 547.97 1303.66Q549.27 1303.66 550.29 1303.05Q551.3 1302.45 551.88 1301.38Q552.46 1300.31 552.46 1298.97Q552.46 1297.59 551.86 1296.5Q551.26 1295.41 550.21 1294.78Q549.16 1294.16 547.81 1294.15Q546.84 1294.14 545.82 1294.44Q544.8 1294.74 544.14 1295.22L541.75 1294.93L543.03 1284.55L553.99 1284.55L553.99 1286.81L545.17 1286.81L544.43 1293.03L544.56 1293.03Q545.2 1292.52 546.18 1292.18Q547.16 1291.84 548.22 1291.84Q550.16 1291.84 551.68 1292.76Q553.2 1293.68 554.07 1295.28Q554.94 1296.88 554.94 1298.92Q554.94 1300.94 554.03 1302.52Q553.13 1304.1 551.56 1305.02Q549.98 1305.93 547.97 1305.93ZM565.73 1284.26Q567.03 1284.27 568.32 1284.75Q569.62 1285.24 570.69 1286.36Q571.76 1287.47 572.41 1289.4Q573.06 1291.32 573.06 1294.23Q573.06 1297.04 572.53 1299.22Q572 1301.4 571.01 1302.89Q570.01 1304.38 568.6 1305.16Q567.18 1305.93 565.4 1305.93Q563.63 1305.93 562.24 1305.22Q560.86 1304.52 559.98 1303.26Q559.1 1301.99 558.85 1300.33L561.36 1300.33Q561.7 1301.78 562.72 1302.72Q563.73 1303.66 565.4 1303.66Q567.84 1303.66 569.26 1301.53Q570.67 1299.4 570.67 1295.51L570.51 1295.51Q569.93 1296.37 569.14 1297Q568.34 1297.63 567.38 1297.97Q566.41 1298.31 565.32 1298.31Q563.5 1298.31 562 1297.41Q560.49 1296.5 559.59 1294.92Q558.68 1293.34 558.68 1291.3Q558.68 1289.37 559.55 1287.76Q560.42 1286.14 562.01 1285.19Q563.59 1284.23 565.73 1284.26ZM565.73 1286.53Q564.43 1286.53 563.4 1287.17Q562.36 1287.81 561.76 1288.9Q561.16 1289.99 561.16 1291.3Q561.16 1292.62 561.74 1293.7Q562.32 1294.77 563.33 1295.41Q564.35 1296.04 565.65 1296.04Q566.62 1296.04 567.47 1295.65Q568.31 1295.27 568.95 1294.59Q569.58 1293.92 569.94 1293.06Q570.3 1292.2 570.3 1291.26Q570.3 1290.03 569.71 1288.95Q569.12 1287.86 568.08 1287.19Q567.05 1286.53 565.73 1286.53Z"/></g><g fill="#27272a"><path d="M972.39 1305.93Q971.09 1305.91 969.79 1305.43Q968.49 1304.96 967.42 1303.83Q966.35 1302.7 965.7 1300.77Q965.05 1298.84 965.05 1295.92Q965.05 1293.12 965.58 1290.95Q966.1 1288.78 967.1 1287.29Q968.1 1285.8 969.52 1285.03Q970.93 1284.26 972.72 1284.26Q974.49 1284.26 975.87 1284.97Q977.26 1285.67 978.13 1286.93Q979.01 1288.18 979.27 1289.82L976.75 1289.82Q976.4 1288.4 975.39 1287.46Q974.38 1286.53 972.72 1286.53Q970.26 1286.53 968.86 1288.66Q967.45 1290.79 967.44 1294.64L967.61 1294.64Q968.18 1293.77 968.98 1293.14Q969.78 1292.52 970.75 1292.18Q971.72 1291.84 972.8 1291.84Q974.61 1291.84 976.11 1292.74Q977.62 1293.64 978.52 1295.22Q979.43 1296.8 979.43 1298.84Q979.43 1300.8 978.55 1302.42Q977.68 1304.04 976.1 1305Q974.52 1305.95 972.39 1305.93ZM972.39 1303.66Q973.68 1303.66 974.72 1303.01Q975.75 1302.36 976.36 1301.27Q976.96 1300.18 976.96 1298.84Q976.96 1297.53 976.38 1296.46Q975.79 1295.38 974.78 1294.74Q973.77 1294.11 972.47 1294.11Q971.49 1294.11 970.65 1294.49Q969.8 1294.88 969.17 1295.55Q968.53 1296.22 968.17 1297.08Q967.81 1297.94 967.81 1298.88Q967.81 1300.14 968.41 1301.23Q969 1302.32 970.03 1302.99Q971.07 1303.66 972.39 1303.66ZM990.35 1305.93Q988.02 1305.93 986.38 1304.66Q984.74 1303.38 983.88 1300.96Q983.01 1298.53 983.01 1295.09Q983.01 1291.67 983.88 1289.25Q984.75 1286.82 986.4 1285.54Q988.04 1284.26 990.35 1284.26Q992.65 1284.26 994.3 1285.54Q995.94 1286.82 996.81 1289.25Q997.68 1291.67 997.68 1295.09Q997.68 1298.53 996.81 1300.96Q995.95 1303.38 994.31 1304.66Q992.67 1305.93 990.35 1305.93ZM990.35 1303.66Q992.65 1303.66 993.93 1301.44Q995.21 1299.21 995.21 1295.09Q995.21 1292.35 994.63 1290.43Q994.04 1288.5 992.96 1287.49Q991.87 1286.48 990.35 1286.48Q988.06 1286.48 986.77 1288.73Q985.49 1290.98 985.49 1295.09Q985.49 1297.83 986.06 1299.75Q986.64 1301.66 987.73 1302.66Q988.81 1303.66 990.35 1303.66Z"/></g><g fill="#27272a"><path d="M1290.39 1305.93Q1289.09 1305.91 1287.79 1305.43Q1286.49 1304.96 1285.42 1303.83Q1284.35 1302.7 1283.7 1300.77Q1283.05 1298.84 1283.05 1295.92Q1283.05 1293.12 1283.58 1290.95Q1284.1 1288.78 1285.1 1287.29Q1286.1 1285.8 1287.52 1285.03Q1288.93 1284.26 1290.72 1284.26Q1292.49 1284.26 1293.87 1284.97Q1295.26 1285.67 1296.13 1286.93Q1297.01 1288.18 1297.27 1289.82L1294.75 1289.82Q1294.4 1288.4 1293.39 1287.46Q1292.38 1286.53 1290.72 1286.53Q1288.26 1286.53 1286.86 1288.66Q1285.45 1290.79 1285.44 1294.64L1285.61 1294.64Q1286.18 1293.77 1286.98 1293.14Q1287.78 1292.52 1288.75 1292.18Q1289.72 1291.84 1290.8 1291.84Q1292.61 1291.84 1294.11 1292.74Q1295.62 1293.64 1296.52 1295.22Q1297.43 1296.8 1297.43 1298.84Q1297.43 1300.8 1296.55 1302.42Q1295.68 1304.04 1294.1 1305Q1292.52 1305.95 1290.39 1305.93ZM1290.39 1303.66Q1291.68 1303.66 1292.72 1303.01Q1293.75 1302.36 1294.36 1301.27Q1294.96 1300.18 1294.96 1298.84Q1294.96 1297.53 1294.38 1296.46Q1293.79 1295.38 1292.78 1294.74Q1291.77 1294.11 1290.47 1294.11Q1289.49 1294.11 1288.65 1294.49Q1287.8 1294.88 1287.17 1295.55Q1286.53 1296.22 1286.17 1297.08Q1285.81 1297.94 1285.81 1298.88Q1285.81 1300.14 1286.41 1301.23Q1287 1302.32 1288.03 1302.99Q1289.07 1303.66 1290.39 1303.66ZM1308.88 1284.55L1308.88 1305.64L1306.33 1305.64L1306.33 1287.23L1306.2 1287.23L1301.06 1290.64L1301.06 1288.05L1306.33 1284.55Z"/></g><g fill="#27272a"><path d="M1396.39 1305.93Q1395.09 1305.91 1393.79 1305.43Q1392.49 1304.96 1391.42 1303.83Q1390.35 1302.7 1389.7 1300.77Q1389.05 1298.84 1389.05 1295.92Q1389.05 1293.12 1389.58 1290.95Q1390.1 1288.78 1391.1 1287.29Q1392.1 1285.8 1393.52 1285.03Q1394.93 1284.26 1396.72 1284.26Q1398.49 1284.26 1399.87 1284.97Q1401.26 1285.67 1402.13 1286.93Q1403.01 1288.18 1403.27 1289.82L1400.75 1289.82Q1400.4 1288.4 1399.39 1287.46Q1398.38 1286.53 1396.72 1286.53Q1394.26 1286.53 1392.86 1288.66Q1391.45 1290.79 1391.44 1294.64L1391.61 1294.64Q1392.18 1293.77 1392.98 1293.14Q1393.78 1292.52 1394.75 1292.18Q1395.72 1291.84 1396.8 1291.84Q1398.61 1291.84 1400.11 1292.74Q1401.62 1293.64 1402.52 1295.22Q1403.43 1296.8 1403.43 1298.84Q1403.43 1300.8 1402.55 1302.42Q1401.68 1304.04 1400.1 1305Q1398.52 1305.95 1396.39 1305.93ZM1396.39 1303.66Q1397.68 1303.66 1398.72 1303.01Q1399.75 1302.36 1400.36 1301.27Q1400.96 1300.18 1400.96 1298.84Q1400.96 1297.53 1400.38 1296.46Q1399.79 1295.38 1398.78 1294.74Q1397.77 1294.11 1396.47 1294.11Q1395.49 1294.11 1394.65 1294.49Q1393.8 1294.88 1393.17 1295.55Q1392.53 1296.22 1392.17 1297.08Q1391.81 1297.94 1391.81 1298.88Q1391.81 1300.14 1392.41 1301.23Q1393 1302.32 1394.03 1302.99Q1395.07 1303.66 1396.39 1303.66ZM1407.47 1305.64L1407.47 1303.79L1414.43 1296.16Q1415.65 1294.83 1416.45 1293.83Q1417.24 1292.84 1417.63 1291.96Q1418.01 1291.08 1418.01 1290.11Q1418.01 1289 1417.48 1288.18Q1416.95 1287.37 1416.04 1286.93Q1415.12 1286.48 1413.98 1286.48Q1412.76 1286.48 1411.86 1286.98Q1410.96 1287.48 1410.47 1288.38Q1409.98 1289.28 1409.98 1290.48L1407.55 1290.48Q1407.55 1288.63 1408.4 1287.23Q1409.26 1285.83 1410.74 1285.04Q1412.21 1284.26 1414.06 1284.26Q1415.91 1284.26 1417.34 1285.04Q1418.77 1285.83 1419.59 1287.15Q1420.4 1288.48 1420.4 1290.11Q1420.4 1291.27 1419.98 1292.38Q1419.57 1293.49 1418.54 1294.84Q1417.52 1296.2 1415.71 1298.14L1410.97 1303.21L1410.97 1303.37L1420.77 1303.37L1420.77 1305.64Z"/></g><g fill="#27272a"><path d="M1502.39 1305.93Q1501.09 1305.91 1499.79 1305.43Q1498.49 1304.96 1497.42 1303.83Q1496.35 1302.7 1495.7 1300.77Q1495.05 1298.84 1495.05 1295.92Q1495.05 1293.12 1495.58 1290.95Q1496.1 1288.78 1497.1 1287.29Q1498.1 1285.8 1499.52 1285.03Q1500.93 1284.26 1502.72 1284.26Q1504.49 1284.26 1505.87 1284.97Q1507.26 1285.67 1508.13 1286.93Q1509.01 1288.18 1509.27 1289.82L1506.75 1289.82Q1506.4 1288.4 1505.39 1287.46Q1504.38 1286.53 1502.72 1286.53Q1500.26 1286.53 1498.86 1288.66Q1497.45 1290.79 1497.44 1294.64L1497.61 1294.64Q1498.18 1293.77 1498.98 1293.14Q1499.78 1292.52 1500.75 1292.18Q1501.72 1291.84 1502.8 1291.84Q1504.61 1291.84 1506.11 1292.74Q1507.62 1293.64 1508.52 1295.22Q1509.43 1296.8 1509.43 1298.84Q1509.43 1300.8 1508.55 1302.42Q1507.68 1304.04 1506.1 1305Q1504.52 1305.95 1502.39 1305.93ZM1502.39 1303.66Q1503.68 1303.66 1504.72 1303.01Q1505.75 1302.36 1506.36 1301.27Q1506.96 1300.18 1506.96 1298.84Q1506.96 1297.53 1506.38 1296.46Q1505.79 1295.38 1504.78 1294.74Q1503.77 1294.11 1502.47 1294.11Q1501.49 1294.11 1500.65 1294.49Q1499.8 1294.88 1499.17 1295.55Q1498.53 1296.22 1498.17 1297.08Q1497.81 1297.94 1497.81 1298.88Q1497.81 1300.14 1498.41 1301.23Q1499 1302.32 1500.03 1302.99Q1501.07 1303.66 1502.39 1303.66ZM1520.59 1305.93Q1518.55 1305.93 1516.96 1305.23Q1515.37 1304.53 1514.44 1303.28Q1513.51 1302.02 1513.43 1300.37L1516.02 1300.37Q1516.1 1301.39 1516.72 1302.12Q1517.34 1302.86 1518.34 1303.26Q1519.34 1303.66 1520.55 1303.66Q1521.91 1303.66 1522.96 1303.19Q1524.01 1302.71 1524.61 1301.87Q1525.21 1301.03 1525.21 1299.91Q1525.21 1298.75 1524.63 1297.86Q1524.05 1296.97 1522.94 1296.46Q1521.83 1295.96 1520.22 1295.96L1518.53 1295.96L1518.53 1293.69L1520.22 1293.69Q1521.48 1293.69 1522.43 1293.24Q1523.38 1292.79 1523.92 1291.96Q1524.47 1291.14 1524.47 1290.03Q1524.47 1288.96 1523.99 1288.16Q1523.52 1287.37 1522.66 1286.93Q1521.8 1286.48 1520.63 1286.48Q1519.54 1286.48 1518.58 1286.88Q1517.62 1287.28 1517.01 1288.02Q1516.4 1288.77 1516.35 1289.82L1513.88 1289.82Q1513.94 1288.16 1514.88 1286.91Q1515.82 1285.66 1517.33 1284.96Q1518.85 1284.26 1520.68 1284.26Q1522.63 1284.26 1524.03 1285.05Q1525.43 1285.84 1526.19 1287.12Q1526.94 1288.41 1526.94 1289.9Q1526.94 1291.68 1526.01 1292.94Q1525.07 1294.2 1523.48 1294.68L1523.48 1294.85Q1525.47 1295.18 1526.6 1296.54Q1527.72 1297.91 1527.72 1299.91Q1527.72 1301.63 1526.79 1303Q1525.86 1304.36 1524.25 1305.14Q1522.64 1305.93 1520.59 1305.93Z"/></g><g fill="#27272a"><path d="M18.39 1411.93Q17.09 1411.91 15.79 1411.43Q14.49 1410.96 13.42 1409.83Q12.35 1408.7 11.7 1406.77Q11.05 1404.84 11.05 1401.92Q11.05 1399.12 11.58 1396.95Q12.1 1394.78 13.1 1393.29Q14.1 1391.8 15.52 1391.03Q16.93 1390.26 18.72 1390.26Q20.49 1390.26 21.87 1390.97Q23.26 1391.67 24.13 1392.93Q25.01 1394.18 25.27 1395.82L22.75 1395.82Q22.4 1394.4 21.39 1393.46Q20.38 1392.53 18.72 1392.53Q16.26 1392.53 14.86 1394.66Q13.45 1396.79 13.44 1400.64L13.61 1400.64Q14.18 1399.77 14.98 1399.14Q15.78 1398.52 16.75 1398.18Q17.72 1397.84 18.8 1397.84Q20.61 1397.84 22.11 1398.74Q23.62 1399.64 24.52 1401.22Q25.43 1402.8 25.43 1404.84Q25.43 1406.8 24.55 1408.42Q23.68 1410.04 22.1 1411Q20.52 1411.95 18.39 1411.93ZM18.39 1409.66Q19.68 1409.66 20.72 1409.01Q21.75 1408.36 22.36 1407.27Q22.96 1406.18 22.96 1404.84Q22.96 1403.53 22.38 1402.46Q21.79 1401.38 20.78 1400.74Q19.77 1400.11 18.47 1400.11Q17.49 1400.11 16.65 1400.49Q15.8 1400.88 15.17 1401.55Q14.53 1402.22 14.17 1403.08Q13.81 1403.94 13.81 1404.88Q13.81 1406.14 14.41 1407.23Q15 1408.32 16.03 1408.99Q17.07 1409.66 18.39 1409.66ZM28.97 1407.31L28.97 1405.21L38.24 1390.55L39.77 1390.55L39.77 1393.8L38.74 1393.8L31.73 1404.88L31.73 1405.05L44.21 1405.05L44.21 1407.31ZM38.9 1411.64L38.9 1406.68L38.9 1405.7L38.9 1390.55L41.33 1390.55L41.33 1411.64Z"/></g><g fill="#27272a"><path d="M442.39 1411.93Q441.09 1411.91 439.79 1411.43Q438.49 1410.96 437.42 1409.83Q436.35 1408.7 435.7 1406.77Q435.05 1404.84 435.05 1401.92Q435.05 1399.12 435.58 1396.95Q436.1 1394.78 437.1 1393.29Q438.1 1391.8 439.52 1391.03Q440.93 1390.26 442.72 1390.26Q444.49 1390.26 445.87 1390.97Q447.26 1391.67 448.13 1392.93Q449.01 1394.18 449.27 1395.82L446.75 1395.82Q446.4 1394.4 445.39 1393.46Q444.38 1392.53 442.72 1392.53Q440.26 1392.53 438.86 1394.66Q437.45 1396.79 437.44 1400.64L437.61 1400.64Q438.18 1399.77 438.98 1399.14Q439.78 1398.52 440.75 1398.18Q441.72 1397.84 442.8 1397.84Q444.61 1397.84 446.11 1398.74Q447.62 1399.64 448.52 1401.22Q449.43 1402.8 449.43 1404.84Q449.43 1406.8 448.55 1408.42Q447.68 1410.04 446.1 1411Q444.52 1411.95 442.39 1411.93ZM442.39 1409.66Q443.68 1409.66 444.72 1409.01Q445.75 1408.36 446.36 1407.27Q446.96 1406.18 446.96 1404.84Q446.96 1403.53 446.38 1402.46Q445.79 1401.38 444.78 1400.74Q443.77 1400.11 442.47 1400.11Q441.49 1400.11 440.65 1400.49Q439.8 1400.88 439.17 1401.55Q438.53 1402.22 438.17 1403.08Q437.81 1403.94 437.81 1404.88Q437.81 1406.14 438.41 1407.23Q439 1408.32 440.03 1408.99Q441.07 1409.66 442.39 1409.66ZM460.06 1411.93Q458.25 1411.93 456.79 1411.21Q455.34 1410.49 454.47 1409.23Q453.59 1407.97 453.51 1406.37L455.98 1406.37Q456.12 1407.8 457.28 1408.73Q458.44 1409.66 460.06 1409.66Q461.36 1409.66 462.37 1409.05Q463.38 1408.45 463.97 1407.38Q464.55 1406.31 464.55 1404.97Q464.55 1403.59 463.95 1402.5Q463.34 1401.41 462.29 1400.78Q461.24 1400.16 459.89 1400.15Q458.93 1400.14 457.91 1400.44Q456.89 1400.74 456.23 1401.22L453.84 1400.93L455.11 1390.55L466.07 1390.55L466.07 1392.81L457.26 1392.81L456.52 1399.03L456.64 1399.03Q457.29 1398.52 458.27 1398.18Q459.24 1397.84 460.31 1397.84Q462.24 1397.84 463.76 1398.76Q465.28 1399.68 466.15 1401.28Q467.02 1402.88 467.02 1404.92Q467.02 1406.94 466.12 1408.52Q465.22 1410.1 463.64 1411.02Q462.07 1411.93 460.06 1411.93Z"/></g><g fill="#27272a"><path d="M1290.39 1411.93Q1289.09 1411.91 1287.79 1411.43Q1286.49 1410.96 1285.42 1409.83Q1284.35 1408.7 1283.7 1406.77Q1283.05 1404.84 1283.05 1401.92Q1283.05 1399.12 1283.58 1396.95Q1284.1 1394.78 1285.1 1393.29Q1286.1 1391.8 1287.52 1391.03Q1288.93 1390.26 1290.72 1390.26Q1292.49 1390.26 1293.87 1390.97Q1295.26 1391.67 1296.13 1392.93Q1297.01 1394.18 1297.27 1395.82L1294.75 1395.82Q1294.4 1394.4 1293.39 1393.46Q1292.38 1392.53 1290.72 1392.53Q1288.26 1392.53 1286.86 1394.66Q1285.45 1396.79 1285.44 1400.64L1285.61 1400.64Q1286.18 1399.77 1286.98 1399.14Q1287.78 1398.52 1288.75 1398.18Q1289.72 1397.84 1290.8 1397.84Q1292.61 1397.84 1294.11 1398.74Q1295.62 1399.64 1296.52 1401.22Q1297.43 1402.8 1297.43 1404.84Q1297.43 1406.8 1296.55 1408.42Q1295.68 1410.04 1294.1 1411Q1292.52 1411.95 1290.39 1411.93ZM1290.39 1409.66Q1291.68 1409.66 1292.72 1409.01Q1293.75 1408.36 1294.36 1407.27Q1294.96 1406.18 1294.96 1404.84Q1294.96 1403.53 1294.38 1402.46Q1293.79 1401.38 1292.78 1400.74Q1291.77 1400.11 1290.47 1400.11Q1289.49 1400.11 1288.65 1400.49Q1287.8 1400.88 1287.17 1401.55Q1286.53 1402.22 1286.17 1403.08Q1285.81 1403.94 1285.81 1404.88Q1285.81 1406.14 1286.41 1407.23Q1287 1408.32 1288.03 1408.99Q1289.07 1409.66 1290.39 1409.66ZM1308.47 1411.93Q1307.17 1411.91 1305.87 1411.43Q1304.58 1410.96 1303.51 1409.83Q1302.44 1408.7 1301.79 1406.77Q1301.14 1404.84 1301.14 1401.92Q1301.14 1399.12 1301.66 1396.95Q1302.19 1394.78 1303.19 1393.29Q1304.19 1391.8 1305.6 1391.03Q1307.02 1390.26 1308.8 1390.26Q1310.57 1390.26 1311.96 1390.97Q1313.34 1391.67 1314.22 1392.93Q1315.09 1394.18 1315.35 1395.82L1312.84 1395.82Q1312.49 1394.4 1311.48 1393.46Q1310.47 1392.53 1308.8 1392.53Q1306.35 1392.53 1304.94 1394.66Q1303.54 1396.79 1303.53 1400.64L1303.69 1400.64Q1304.27 1399.77 1305.07 1399.14Q1305.86 1398.52 1306.83 1398.18Q1307.8 1397.84 1308.88 1397.84Q1310.69 1397.84 1312.2 1398.74Q1313.7 1399.64 1314.61 1401.22Q1315.51 1402.8 1315.51 1404.84Q1315.51 1406.8 1314.64 1408.42Q1313.76 1410.04 1312.18 1411Q1310.6 1411.95 1308.47 1411.93ZM1308.47 1409.66Q1309.77 1409.66 1310.8 1409.01Q1311.84 1408.36 1312.44 1407.27Q1313.04 1406.18 1313.04 1404.84Q1313.04 1403.53 1312.46 1402.46Q1311.88 1401.38 1310.86 1400.74Q1309.85 1400.11 1308.55 1400.11Q1307.57 1400.11 1306.73 1400.49Q1305.89 1400.88 1305.25 1401.55Q1304.62 1402.22 1304.26 1403.08Q1303.9 1403.94 1303.9 1404.88Q1303.9 1406.14 1304.49 1407.23Q1305.08 1408.32 1306.12 1408.99Q1307.15 1409.66 1308.47 1409.66Z"/></g><g fill="#27272a"><path d="M18.39 1517.93Q17.09 1517.91 15.79 1517.43Q14.49 1516.96 13.42 1515.83Q12.35 1514.7 11.7 1512.77Q11.05 1510.84 11.05 1507.92Q11.05 1505.12 11.58 1502.95Q12.1 1500.78 13.1 1499.29Q14.1 1497.8 15.52 1497.03Q16.93 1496.26 18.72 1496.26Q20.49 1496.26 21.87 1496.97Q23.26 1497.67 24.13 1498.93Q25.01 1500.18 25.27 1501.82L22.75 1501.82Q22.4 1500.4 21.39 1499.46Q20.38 1498.53 18.72 1498.53Q16.26 1498.53 14.86 1500.66Q13.45 1502.79 13.44 1506.64L13.61 1506.64Q14.18 1505.77 14.98 1505.14Q15.78 1504.52 16.75 1504.18Q17.72 1503.84 18.8 1503.84Q20.61 1503.84 22.11 1504.74Q23.62 1505.64 24.52 1507.22Q25.43 1508.8 25.43 1510.84Q25.43 1512.8 24.55 1514.42Q23.68 1516.04 22.1 1517Q20.52 1517.95 18.39 1517.93ZM18.39 1515.66Q19.68 1515.66 20.72 1515.01Q21.75 1514.36 22.36 1513.27Q22.96 1512.18 22.96 1510.84Q22.96 1509.53 22.38 1508.46Q21.79 1507.38 20.78 1506.74Q19.77 1506.11 18.47 1506.11Q17.49 1506.11 16.65 1506.49Q15.8 1506.88 15.17 1507.55Q14.53 1508.22 14.17 1509.08Q13.81 1509.94 13.81 1510.88Q13.81 1512.14 14.41 1513.23Q15 1514.32 16.03 1514.99Q17.07 1515.66 18.39 1515.66ZM30.13 1517.64L39.56 1498.98L39.56 1498.81L28.68 1498.81L28.68 1496.55L42.2 1496.55L42.2 1498.94L32.8 1517.64Z"/></g><g fill="#27272a"><path d="M442.39 1517.93Q441.09 1517.91 439.79 1517.43Q438.49 1516.96 437.42 1515.83Q436.35 1514.7 435.7 1512.77Q435.05 1510.84 435.05 1507.92Q435.05 1505.12 435.58 1502.95Q436.1 1500.78 437.1 1499.29Q438.1 1497.8 439.52 1497.03Q440.93 1496.26 442.72 1496.26Q444.49 1496.26 445.87 1496.97Q447.26 1497.67 448.13 1498.93Q449.01 1500.18 449.27 1501.82L446.75 1501.82Q446.4 1500.4 445.39 1499.46Q444.38 1498.53 442.72 1498.53Q440.26 1498.53 438.86 1500.66Q437.45 1502.79 437.44 1506.64L437.61 1506.64Q438.18 1505.77 438.98 1505.14Q439.78 1504.52 440.75 1504.18Q441.72 1503.84 442.8 1503.84Q444.61 1503.84 446.11 1504.74Q447.62 1505.64 448.52 1507.22Q449.43 1508.8 449.43 1510.84Q449.43 1512.8 448.55 1514.42Q447.68 1516.04 446.1 1517Q444.52 1517.95 442.39 1517.93ZM442.39 1515.66Q443.68 1515.66 444.72 1515.01Q445.75 1514.36 446.36 1513.27Q446.96 1512.18 446.96 1510.84Q446.96 1509.53 446.38 1508.46Q445.79 1507.38 444.78 1506.74Q443.77 1506.11 442.47 1506.11Q441.49 1506.11 440.65 1506.49Q439.8 1506.88 439.17 1507.55Q438.53 1508.22 438.17 1509.08Q437.81 1509.94 437.81 1510.88Q437.81 1512.14 438.41 1513.23Q439 1514.32 440.03 1514.99Q441.07 1515.66 442.39 1515.66ZM460.22 1517.93Q458.1 1517.93 456.48 1517.17Q454.86 1516.41 453.95 1515.08Q453.04 1513.75 453.06 1512.04Q453.04 1510.7 453.58 1509.56Q454.12 1508.42 455.05 1507.65Q455.98 1506.89 457.13 1506.68L457.13 1506.56Q455.62 1506.17 454.72 1504.85Q453.83 1503.54 453.84 1501.86Q453.83 1500.26 454.65 1498.99Q455.48 1497.72 456.92 1496.99Q458.37 1496.26 460.22 1496.26Q462.06 1496.26 463.5 1496.99Q464.94 1497.72 465.77 1498.99Q466.6 1500.26 466.61 1501.86Q466.6 1503.54 465.7 1504.85Q464.8 1506.17 463.31 1506.56L463.31 1506.68Q464.46 1506.89 465.37 1507.65Q466.29 1508.42 466.83 1509.56Q467.38 1510.7 467.39 1512.04Q467.38 1513.75 466.47 1515.08Q465.56 1516.41 463.95 1517.17Q462.33 1517.93 460.22 1517.93ZM460.22 1515.66Q461.65 1515.66 462.69 1515.2Q463.73 1514.73 464.3 1513.89Q464.87 1513.05 464.88 1511.91Q464.87 1510.72 464.26 1509.8Q463.65 1508.89 462.61 1508.36Q461.56 1507.84 460.22 1507.84Q458.87 1507.84 457.82 1508.36Q456.76 1508.89 456.16 1509.8Q455.56 1510.72 455.57 1511.91Q455.56 1513.05 456.12 1513.89Q456.68 1514.73 457.73 1515.2Q458.78 1515.66 460.22 1515.66ZM460.22 1505.65Q461.36 1505.65 462.24 1505.2Q463.12 1504.75 463.62 1503.93Q464.13 1503.12 464.14 1502.03Q464.13 1500.96 463.63 1500.16Q463.14 1499.36 462.26 1498.92Q461.39 1498.48 460.22 1498.48Q459.04 1498.48 458.15 1498.92Q457.27 1499.36 456.78 1500.16Q456.3 1500.96 456.31 1502.03Q456.3 1503.12 456.8 1503.93Q457.3 1504.75 458.18 1505.2Q459.07 1505.65 460.22 1505.65Z"/></g><g fill="#27272a"><path d="M866.39 1517.93Q865.09 1517.91 863.79 1517.43Q862.49 1516.96 861.42 1515.83Q860.35 1514.7 859.7 1512.77Q859.05 1510.84 859.05 1507.92Q859.05 1505.12 859.58 1502.95Q860.1 1500.78 861.1 1499.29Q862.1 1497.8 863.52 1497.03Q864.93 1496.26 866.72 1496.26Q868.49 1496.26 869.87 1496.97Q871.26 1497.67 872.13 1498.93Q873.01 1500.18 873.27 1501.82L870.75 1501.82Q870.4 1500.4 869.39 1499.46Q868.38 1498.53 866.72 1498.53Q864.26 1498.53 862.86 1500.66Q861.45 1502.79 861.44 1506.64L861.61 1506.64Q862.18 1505.77 862.98 1505.14Q863.78 1504.52 864.75 1504.18Q865.72 1503.84 866.8 1503.84Q868.61 1503.84 870.11 1504.74Q871.62 1505.64 872.52 1507.22Q873.43 1508.8 873.43 1510.84Q873.43 1512.8 872.55 1514.42Q871.68 1516.04 870.1 1517Q868.52 1517.95 866.39 1517.93ZM866.39 1515.66Q867.68 1515.66 868.72 1515.01Q869.75 1514.36 870.36 1513.27Q870.96 1512.18 870.96 1510.84Q870.96 1509.53 870.38 1508.46Q869.79 1507.38 868.78 1506.74Q867.77 1506.11 866.47 1506.11Q865.49 1506.11 864.65 1506.49Q863.8 1506.88 863.17 1507.55Q862.53 1508.22 862.17 1509.08Q861.81 1509.94 861.81 1510.88Q861.81 1512.14 862.41 1513.23Q863 1514.32 864.03 1514.99Q865.07 1515.66 866.39 1515.66ZM884.18 1496.26Q885.48 1496.27 886.78 1496.75Q888.07 1497.24 889.15 1498.36Q890.22 1499.47 890.87 1501.4Q891.51 1503.32 891.51 1506.23Q891.51 1509.04 890.98 1511.22Q890.45 1513.4 889.46 1514.89Q888.47 1516.38 887.05 1517.16Q885.63 1517.93 883.85 1517.93Q882.08 1517.93 880.7 1517.22Q879.31 1516.52 878.43 1515.26Q877.55 1513.99 877.3 1512.33L879.82 1512.33Q880.15 1513.78 881.17 1514.72Q882.18 1515.66 883.85 1515.66Q886.29 1515.66 887.71 1513.53Q889.12 1511.4 889.12 1507.51L888.96 1507.51Q888.38 1508.37 887.59 1509Q886.8 1509.63 885.83 1509.97Q884.86 1510.31 883.77 1510.31Q881.96 1510.31 880.45 1509.41Q878.94 1508.5 878.04 1506.92Q877.14 1505.34 877.14 1503.3Q877.14 1501.37 878.01 1499.76Q878.88 1498.14 880.46 1497.19Q882.04 1496.23 884.18 1496.26ZM884.18 1498.53Q882.88 1498.53 881.85 1499.17Q880.81 1499.81 880.21 1500.9Q879.61 1501.99 879.61 1503.3Q879.61 1504.62 880.19 1505.7Q880.77 1506.77 881.79 1507.41Q882.8 1508.04 884.1 1508.04Q885.08 1508.04 885.92 1507.65Q886.77 1507.27 887.4 1506.59Q888.03 1505.92 888.39 1505.06Q888.75 1504.2 888.75 1503.26Q888.75 1502.03 888.16 1500.95Q887.57 1499.86 886.53 1499.19Q885.5 1498.53 884.18 1498.53Z"/></g><g fill="#27272a"><path d="M1284.04 1517.64L1293.48 1498.98L1293.48 1498.81L1282.6 1498.81L1282.6 1496.55L1296.11 1496.55L1296.11 1498.94L1286.72 1517.64ZM1306.82 1517.93Q1304.49 1517.93 1302.86 1516.66Q1301.22 1515.38 1300.35 1512.96Q1299.49 1510.53 1299.49 1507.09Q1299.49 1503.67 1300.36 1501.25Q1301.23 1498.82 1302.87 1497.54Q1304.52 1496.26 1306.82 1496.26Q1309.13 1496.26 1310.77 1497.54Q1312.41 1498.82 1313.28 1501.25Q1314.15 1503.67 1314.15 1507.09Q1314.15 1510.53 1313.29 1512.96Q1312.42 1515.38 1310.79 1516.66Q1309.15 1517.93 1306.82 1517.93ZM1306.82 1515.66Q1309.13 1515.66 1310.41 1513.44Q1311.68 1511.21 1311.68 1507.09Q1311.68 1504.35 1311.1 1502.43Q1310.52 1500.5 1309.43 1499.49Q1308.35 1498.48 1306.82 1498.48Q1304.54 1498.48 1303.25 1500.73Q1301.96 1502.98 1301.96 1507.09Q1301.96 1509.83 1302.54 1511.75Q1303.11 1513.66 1304.2 1514.66Q1305.29 1515.66 1306.82 1515.66Z"/></g></svg>